<?xml version="1.0" encoding="us-ascii" standalone="no"?><svg xmlns="http://www.w3.org/2000/svg" xmlns:xlink="http://www.w3.org/1999/xlink" contentStyleType="text/css" height="338px" preserveAspectRatio="none" style="width:834px;height:338px;background:#FFFFFF;" version="1.1" viewBox="0 0 834 338" width="834px" zoomAndPan="magnify"><defs/><g><!--cluster App Store--><g id="cluster_App Store"><path d="M86.5,6.602 L156.5,6.602 A3.75,3.75 0 0 1 159,9.102 L166,31.6699 L824.53,31.6699 A2.5,2.5 0 0 1 827.03,34.1699 L827.03,329.102 A2.5,2.5 0 0 1 824.53,331.602 L86.5,331.602 A2.5,2.5 0 0 1 84,329.102 L84,9.102 A2.5,2.5 0 0 1 86.5,6.602 " fill="none" style="stroke:#000000;stroke-width:1.5;"/><line style="stroke:#000000;stroke-width:1.5;" x1="84" x2="166" y1="31.6699" y2="31.6699"/><text fill="#000000" font-family="sans-serif" font-size="14" font-weight="bold" lengthAdjust="spacing" textLength="69" x="88" y="23.5679">App Store</text></g><g id="elem_install"><ellipse cx="755.4655" cy="280.5975" fill="#F1F1F1" rx="41.9555" ry="16.7556" style="stroke:#181818;stroke-width:0.5;"/><text fill="#000000" font-family="sans-serif" font-size="14" lengthAdjust="spacing" textLength="42" x="731.4655" y="285.3305">Install</text></g><g id="elem_uninstall"><ellipse cx="755.4727" cy="203.6023" fill="#F1F1F1" rx="55.5627" ry="16.9203" style="stroke:#181818;stroke-width:0.5;"/><text fill="#000000" font-family="sans-serif" font-size="14" lengthAdjust="spacing" textLength="60" x="722.4727" y="208.3352">Uninstall</text></g><g id="elem_update"><ellipse cx="180.4859" cy="116.6028" fill="#F1F1F1" rx="47.2459" ry="16.8308" style="stroke:#181818;stroke-width:0.5;"/><text fill="#000000" font-family="sans-serif" font-size="14" lengthAdjust="spacing" textLength="49" x="152.9859" y="121.3357">Update</text></g><g id="elem_updateSubset"><ellipse cx="494.4393" cy="147.603" fill="#F1F1F1" rx="81.4593" ry="30.201" style="stroke:#181818;stroke-width:0.5;"/><text fill="#000000" font-family="sans-serif" font-size="14" lengthAdjust="spacing" textLength="98" x="442.4393" y="142.802">Update subset</text><text fill="#000000" font-family="sans-serif" font-size="14" lengthAdjust="spacing" textLength="51" x="467.9393" y="161.8699">of Apps</text></g><g id="elem_updateAll"><ellipse cx="494.4361" cy="63.5972" fill="#F1F1F1" rx="81.2761" ry="18.6552" style="stroke:#181818;stroke-width:0.5;"/><text fill="#000000" font-family="sans-serif" font-size="14" lengthAdjust="spacing" textLength="107" x="437.9361" y="68.3302">Update all Apps</text></g><g id="elem_findApp"><ellipse cx="180.492" cy="216.606" fill="#F1F1F1" rx="80.492" ry="48.114" style="stroke:#181818;stroke-width:0.5;"/><text fill="#000000" font-family="sans-serif" font-size="14" lengthAdjust="spacing" textLength="100" x="131.1123" y="198.0155">Search for App</text><line style="stroke:#181818;stroke-width:1.0;" x1="104.7361" x2="256.2478" y1="202.1175" y2="202.1175"/><text fill="#000000" font-family="sans-serif" font-size="14" lengthAdjust="spacing" textLength="90" x="136.1123" y="221.0834">found results</text><text fill="#000000" font-family="sans-serif" font-size="14" lengthAdjust="spacing" textLength="67" x="147.6123" y="240.1513">no results</text></g><g id="elem_selectApp"><ellipse cx="494.4419" cy="298.5986" fill="#F1F1F1" rx="63.8819" ry="16.9866" style="stroke:#181818;stroke-width:0.5;"/><text fill="#000000" font-family="sans-serif" font-size="14" lengthAdjust="spacing" textLength="71" x="455.9419" y="303.3316">Select App</text></g><g id="elem_showError"><ellipse cx="494.441" cy="229.6038" fill="#F1F1F1" rx="66.151" ry="17.0018" style="stroke:#181818;stroke-width:0.5;"/><text fill="#000000" font-family="sans-serif" font-size="14" lengthAdjust="spacing" textLength="74" x="454.441" y="234.3368">Show Error</text></g><!--entity user--><g id="elem_user"><ellipse cx="21.5" cy="136.572" fill="#F1F1F1" rx="8" ry="8" style="stroke:#181818;stroke-width:0.5;"/><path d="M21.5,144.572 L21.5,171.572 M8.5,152.572 L34.5,152.572 M21.5,171.572 L8.5,186.572 M21.5,171.572 L34.5,186.572 " fill="none" style="stroke:#181818;stroke-width:0.5;"/><text fill="#000000" font-family="sans-serif" font-size="14" lengthAdjust="spacing" textLength="31" x="6" y="203.0379">User</text></g><!--link user to update--><g id="link_user_update"><path d="M37.27,162.802 C61.62,154.892 110.84,138.902 144.48,127.972 " fill="none" id="user-update" style="stroke:#181818;stroke-width:1.0;"/></g><!--link user to findApp--><g id="link_user_findApp"><path d="M37.27,172.212 C53.83,177.382 81.9,186.142 108.75,194.522 " fill="none" id="user-findApp" style="stroke:#181818;stroke-width:1.0;"/></g><!--reverse link update to updateAll--><g id="link_update_updateAll"><path d="M241.6357,106.387 C294.1957,97.457 366.59,85.152 428.03,74.712 " fill="none" id="update-backto-updateAll" style="stroke:#181818;stroke-width:1.0;"/><polygon fill="none" points="223.89,109.402,242.6407,112.3022,240.6307,100.4717,223.89,109.402" style="stroke:#181818;stroke-width:1.0;"/></g><!--reverse link update to updateSubset--><g id="link_update_updateSubset"><path d="M244.4316,122.8533 C293.7016,127.7533 355.68,133.912 415.24,139.832 " fill="none" id="update-backto-updateSubset" style="stroke:#181818;stroke-width:1.0;"/><polygon fill="none" points="226.52,121.072,243.8379,128.8239,245.0254,116.8828,226.52,121.072" style="stroke:#181818;stroke-width:1.0;"/></g><!--reverse link findApp to selectApp--><g id="link_findApp_selectApp"><path d="M245.1131,252.2719 C261.2831,260.2319 273.76,265.312 290.98,270.602 C336.95,284.712 390.97,291.732 431.65,295.212 " fill="none" id="findApp-backto-selectApp" style="stroke:#181818;stroke-width:1.0;stroke-dasharray:7.0,7.0;"/><polygon fill="#181818" points="239.73,249.622,246.038,257.1856,244.2159,251.8303,249.5713,250.0082,239.73,249.622" style="stroke:#181818;stroke-width:1.0;"/><text fill="#000000" font-family="sans-serif" font-size="13" lengthAdjust="spacing" textLength="56" x="308.98" y="248.499">&#171;extend&#187;</text><text fill="#000000" font-family="sans-serif" font-size="13" lengthAdjust="spacing" textLength="87" x="294.98" y="266.205">(found results)</text></g><!--reverse link findApp to showError--><g id="link_findApp_showError"><path d="M267.0148,220.1622 C319.0048,222.3322 380.05,224.872 428.76,226.902 " fill="none" id="findApp-backto-showError" style="stroke:#181818;stroke-width:1.0;stroke-dasharray:7.0,7.0;"/><polygon fill="#181818" points="261.02,219.912,269.8454,224.2838,266.0157,220.1205,270.179,216.2908,261.02,219.912" style="stroke:#181818;stroke-width:1.0;"/><text fill="#000000" font-family="sans-serif" font-size="13" lengthAdjust="spacing" textLength="56" x="308.98" y="199.499">&#171;extend&#187;</text><text fill="#000000" font-family="sans-serif" font-size="13" lengthAdjust="spacing" textLength="67" x="304.98" y="217.205">(no results)</text></g><!--reverse link selectApp to install--><g id="link_selectApp_install"><path d="M562.8156,293.9171 C611.2856,290.5571 671.57,286.362 713.7,283.432 " fill="none" id="selectApp-backto-install" style="stroke:#181818;stroke-width:1.0;stroke-dasharray:7.0,7.0;"/><polygon fill="#181818" points="556.83,294.332,566.0851,297.7,561.818,293.9862,565.5318,289.7192,556.83,294.332" style="stroke:#181818;stroke-width:1.0;"/><text fill="#000000" font-family="sans-serif" font-size="13" lengthAdjust="spacing" textLength="56" x="609.9" y="264.499">&#171;extend&#187;</text><text fill="#000000" font-family="sans-serif" font-size="13" lengthAdjust="spacing" textLength="43" x="617.9" y="282.205">(install)</text></g><!--reverse link selectApp to uninstall--><g id="link_selectApp_uninstall"><path d="M538.7191,282.5245 C552.5091,276.9245 562.45,272.242 575.9,264.602 C590.28,256.442 590.98,249.712 605.9,242.602 C637.56,227.512 675.89,217.642 705.69,211.602 " fill="none" id="selectApp-backto-uninstall" style="stroke:#181818;stroke-width:1.0;stroke-dasharray:7.0,7.0;"/><polygon fill="#181818" points="533.16,284.782,543.0037,285.1018,537.7926,282.9007,539.9937,277.6897,533.16,284.782" style="stroke:#181818;stroke-width:1.0;"/><text fill="#000000" font-family="sans-serif" font-size="13" lengthAdjust="spacing" textLength="56" x="609.9" y="198.499">&#171;extend&#187;</text><text fill="#000000" font-family="sans-serif" font-size="13" lengthAdjust="spacing" textLength="59" x="609.9" y="216.205">(uninstall)</text></g><!--SRC=[TLAxRiCm3Dpz5OIcPaW-e302PEZGsSYMHR6esAWX6NgW1Ph-UwcN7TMf5edatP4yYFTE6pXRDC0jUBgRPkRz1xyXiDCyGqTrPF3T09q9fGEdmOotmO4O3VPkrAg9HIBtt2ACoZe-JK6FlQStgm1UFKBE9Ve3cWLtc13n-QpS-Qj5zm026pCN1Le2ZM-ViKwbSsv1uHOgHoN2_W7O8JVz09ASebI4xVVnajeh0GQjdvoD6QMhaDNUaDH4dWKP5gHj38leYXhq9xmPeqr2KHYZHSpG07cRAfMdphYqNtjViBJvFvNaPEALrTl3OHqGNe6rBNuvLE9u98DVgjrtR4ijKs-fgqcxRD3Q9r3B_zWGSo5tgqdhjzhGbX8HVvfV]--></g></svg>