<?xml version="1.0" encoding="us-ascii" standalone="no"?><svg xmlns="http://www.w3.org/2000/svg" xmlns:xlink="http://www.w3.org/1999/xlink" contentStyleType="text/css" height="635px" preserveAspectRatio="none" style="width:478px;height:635px;background:#FFFFFF;" version="1.1" viewBox="0 0 478 635" width="478px" zoomAndPan="magnify"><defs/><g><ellipse cx="221.4375" cy="20" fill="#222222" rx="10" ry="10" style="stroke:#222222;stroke-width:1.0;"/><rect fill="#F1F1F1" height="36.3441" rx="12.5" ry="12.5" style="stroke:#181818;stroke-width:0.5;" width="102" x="170.4375" y="50"/><text fill="#000000" font-family="sans-serif" font-size="12" lengthAdjust="spacing" textLength="82" x="180.4375" y="72.8281">Choose Option</text><polygon fill="#F1F1F1" points="221.4375,106.3441,221.4375,106.3441,233.4375,118.3441,221.4375,130.3441,221.4375,130.3441,209.4375,118.3441,221.4375,106.3441" style="stroke:#181818;stroke-width:0.5;"/><text fill="#000000" font-family="sans-serif" font-size="11" lengthAdjust="spacing" textLength="38" x="171.4375" y="115.1211">Update</text><text fill="#000000" font-family="sans-serif" font-size="11" lengthAdjust="spacing" textLength="35" x="233.4375" y="115.1211">Search</text><rect fill="#F1F1F1" height="36.3441" rx="12.5" ry="12.5" style="stroke:#181818;stroke-width:0.5;" width="105" x="34.25" y="140.3441"/><text fill="#000000" font-family="sans-serif" font-size="12" lengthAdjust="spacing" textLength="85" x="44.25" y="163.1722">Make Selection</text><polygon fill="#F1F1F1" points="86.75,196.6882,86.75,196.6882,98.75,208.6882,86.75,220.6882,86.75,220.6882,74.75,208.6882,86.75,196.6882" style="stroke:#181818;stroke-width:0.5;"/><text fill="#000000" font-family="sans-serif" font-size="11" lengthAdjust="spacing" textLength="12" x="62.75" y="205.4653">all</text><text fill="#000000" font-family="sans-serif" font-size="11" lengthAdjust="spacing" textLength="34" x="98.75" y="205.4653">subset</text><rect fill="#F1F1F1" height="52.6882" rx="12.5" ry="12.5" style="stroke:#181818;stroke-width:0.5;" width="64" x="11" y="230.6882"/><text fill="#000000" font-family="sans-serif" font-size="12" lengthAdjust="spacing" textLength="41" x="21" y="253.5163">Update</text><text fill="#000000" font-family="sans-serif" font-size="12" lengthAdjust="spacing" textLength="44" x="21" y="269.8604">all Apps</text><rect fill="#F1F1F1" height="69.0323" rx="12.5" ry="12.5" style="stroke:#181818;stroke-width:0.5;" width="71" x="95" y="230.6882"/><text fill="#000000" font-family="sans-serif" font-size="12" lengthAdjust="spacing" textLength="41" x="105" y="253.5163">Update</text><text fill="#000000" font-family="sans-serif" font-size="12" lengthAdjust="spacing" textLength="51" x="105" y="269.8604">subset of</text><text fill="#000000" font-family="sans-serif" font-size="12" lengthAdjust="spacing" textLength="28" x="105" y="286.2045">Apps</text><polygon fill="#F1F1F1" points="86.75,305.7206,98.75,317.7206,86.75,329.7206,74.75,317.7206,86.75,305.7206" style="stroke:#181818;stroke-width:0.5;"/><rect fill="#F1F1F1" height="36.3441" rx="12.5" ry="12.5" style="stroke:#181818;stroke-width:0.5;" width="84" x="314.125" y="140.3441"/><text fill="#000000" font-family="sans-serif" font-size="12" lengthAdjust="spacing" textLength="64" x="324.125" y="163.1722">Search App</text><polygon fill="#F1F1F1" points="356.125,196.6882,356.125,196.6882,368.125,208.6882,356.125,220.6882,356.125,220.6882,344.125,208.6882,356.125,196.6882" style="stroke:#181818;stroke-width:0.5;"/><text fill="#000000" font-family="sans-serif" font-size="11" lengthAdjust="spacing" textLength="70" x="274.125" y="205.4653">found results</text><text fill="#000000" font-family="sans-serif" font-size="11" lengthAdjust="spacing" textLength="52" x="368.125" y="205.4653">no results</text><rect fill="#F1F1F1" height="36.3441" rx="12.5" ry="12.5" style="stroke:#181818;stroke-width:0.5;" width="129" x="221.25" y="230.6882"/><text fill="#000000" font-family="sans-serif" font-size="12" lengthAdjust="spacing" textLength="109" x="231.25" y="253.5163">Show List of Results</text><rect fill="#F1F1F1" height="36.3441" rx="12.5" ry="12.5" style="stroke:#181818;stroke-width:0.5;" width="79" x="246.25" y="302.0323"/><text fill="#000000" font-family="sans-serif" font-size="12" lengthAdjust="spacing" textLength="59" x="256.25" y="324.8604">Select App</text><rect fill="#F1F1F1" height="36.3441" rx="12.5" ry="12.5" style="stroke:#181818;stroke-width:0.5;" width="102" x="234.75" y="358.3765"/><text fill="#000000" font-family="sans-serif" font-size="12" lengthAdjust="spacing" textLength="82" x="244.75" y="381.2045">Choose Option</text><polygon fill="#F1F1F1" points="285.75,414.7206,285.75,414.7206,297.75,426.7206,285.75,438.7206,285.75,438.7206,273.75,426.7206,285.75,414.7206" style="stroke:#181818;stroke-width:0.5;"/><rect fill="#F1F1F1" height="36.3441" rx="12.5" ry="12.5" style="stroke:#181818;stroke-width:0.5;" width="54" x="206" y="478.4704"/><text fill="#000000" font-family="sans-serif" font-size="12" lengthAdjust="spacing" textLength="34" x="216" y="501.2985">Install</text><rect fill="#F1F1F1" height="36.3441" rx="12.5" ry="12.5" style="stroke:#181818;stroke-width:0.5;" width="69" x="285" y="478.4704"/><text fill="#000000" font-family="sans-serif" font-size="12" lengthAdjust="spacing" textLength="49" x="295" y="501.2985">Uninstall</text><polygon fill="#F1F1F1" points="285.75,524.8145,285.75,524.8145,297.75,536.8145,285.75,548.8145,285.75,548.8145,273.75,536.8145,285.75,524.8145" style="stroke:#181818;stroke-width:0.5;"/><rect fill="#F1F1F1" height="36.3441" rx="12.5" ry="12.5" style="stroke:#181818;stroke-width:0.5;" width="82" x="385.5" y="230.6882"/><text fill="#000000" font-family="sans-serif" font-size="12" lengthAdjust="spacing" textLength="62" x="395.5" y="253.5163">Show Error</text><polygon fill="#F1F1F1" points="221.4375,558.8145,233.4375,570.8145,221.4375,582.8145,209.4375,570.8145,221.4375,558.8145" style="stroke:#181818;stroke-width:0.5;"/><ellipse cx="221.4375" cy="613.8145" fill="none" rx="11" ry="11" style="stroke:#222222;stroke-width:1.0;"/><ellipse cx="221.4375" cy="613.8145" fill="#222222" rx="6" ry="6" style="stroke:#222222;stroke-width:1.0;"/><line style="stroke:#181818;stroke-width:1.0;" x1="221.4375" x2="221.4375" y1="30" y2="50"/><polygon fill="#181818" points="217.4375,40,221.4375,50,225.4375,40,221.4375,44" style="stroke:#181818;stroke-width:1.0;"/><line style="stroke:#181818;stroke-width:1.0;" x1="74.75" x2="43" y1="208.6882" y2="208.6882"/><line style="stroke:#181818;stroke-width:1.0;" x1="43" x2="43" y1="208.6882" y2="230.6882"/><polygon fill="#181818" points="39,220.6882,43,230.6882,47,220.6882,43,224.6882" style="stroke:#181818;stroke-width:1.0;"/><line style="stroke:#181818;stroke-width:1.0;" x1="98.75" x2="130.5" y1="208.6882" y2="208.6882"/><line style="stroke:#181818;stroke-width:1.0;" x1="130.5" x2="130.5" y1="208.6882" y2="230.6882"/><polygon fill="#181818" points="126.5,220.6882,130.5,230.6882,134.5,220.6882,130.5,224.6882" style="stroke:#181818;stroke-width:1.0;"/><line style="stroke:#181818;stroke-width:1.0;" x1="43" x2="43" y1="283.3765" y2="317.7206"/><line style="stroke:#181818;stroke-width:1.0;" x1="43" x2="74.75" y1="317.7206" y2="317.7206"/><polygon fill="#181818" points="64.75,313.7206,74.75,317.7206,64.75,321.7206,68.75,317.7206" style="stroke:#181818;stroke-width:1.0;"/><line style="stroke:#181818;stroke-width:1.0;" x1="130.5" x2="130.5" y1="299.7206" y2="317.7206"/><line style="stroke:#181818;stroke-width:1.0;" x1="130.5" x2="98.75" y1="317.7206" y2="317.7206"/><polygon fill="#181818" points="108.75,313.7206,98.75,317.7206,108.75,321.7206,104.75,317.7206" style="stroke:#181818;stroke-width:1.0;"/><line style="stroke:#181818;stroke-width:1.0;" x1="86.75" x2="86.75" y1="176.6882" y2="196.6882"/><polygon fill="#181818" points="82.75,186.6882,86.75,196.6882,90.75,186.6882,86.75,190.6882" style="stroke:#181818;stroke-width:1.0;"/><line style="stroke:#181818;stroke-width:1.0;" x1="285.75" x2="285.75" y1="267.0323" y2="302.0323"/><polygon fill="#181818" points="281.75,292.0323,285.75,302.0323,289.75,292.0323,285.75,296.0323" style="stroke:#181818;stroke-width:1.0;"/><line style="stroke:#181818;stroke-width:1.0;" x1="285.75" x2="285.75" y1="338.3765" y2="358.3765"/><polygon fill="#181818" points="281.75,348.3765,285.75,358.3765,289.75,348.3765,285.75,352.3765" style="stroke:#181818;stroke-width:1.0;"/><line style="stroke:#181818;stroke-width:1.0;" x1="273.75" x2="233" y1="426.7206" y2="426.7206"/><line style="stroke:#181818;stroke-width:1.0;" x1="233" x2="233" y1="426.7206" y2="478.4704"/><polygon fill="#181818" points="229,468.4704,233,478.4704,237,468.4704,233,472.4704" style="stroke:#181818;stroke-width:1.0;"/><text fill="#000000" font-family="sans-serif" font-size="11" lengthAdjust="spacing" textLength="32" x="233" y="456.9704">Install</text><line style="stroke:#181818;stroke-width:1.0;" x1="297.75" x2="319.5" y1="426.7206" y2="426.7206"/><line style="stroke:#181818;stroke-width:1.0;" x1="319.5" x2="319.5" y1="426.7206" y2="478.4704"/><polygon fill="#181818" points="315.5,468.4704,319.5,478.4704,323.5,468.4704,319.5,472.4704" style="stroke:#181818;stroke-width:1.0;"/><text fill="#000000" font-family="sans-serif" font-size="11" lengthAdjust="spacing" textLength="46" x="319.5" y="456.9704">Uninstall</text><line style="stroke:#181818;stroke-width:1.0;" x1="233" x2="233" y1="514.8145" y2="536.8145"/><line style="stroke:#181818;stroke-width:1.0;" x1="233" x2="273.75" y1="536.8145" y2="536.8145"/><polygon fill="#181818" points="263.75,532.8145,273.75,536.8145,263.75,540.8145,267.75,536.8145" style="stroke:#181818;stroke-width:1.0;"/><line style="stroke:#181818;stroke-width:1.0;" x1="319.5" x2="319.5" y1="514.8145" y2="536.8145"/><line style="stroke:#181818;stroke-width:1.0;" x1="319.5" x2="297.75" y1="536.8145" y2="536.8145"/><polygon fill="#181818" points="307.75,532.8145,297.75,536.8145,307.75,540.8145,303.75,536.8145" style="stroke:#181818;stroke-width:1.0;"/><line style="stroke:#181818;stroke-width:1.0;" x1="285.75" x2="285.75" y1="394.7206" y2="414.7206"/><polygon fill="#181818" points="281.75,404.7206,285.75,414.7206,289.75,404.7206,285.75,408.7206" style="stroke:#181818;stroke-width:1.0;"/><line style="stroke:#181818;stroke-width:1.0;" x1="344.125" x2="285.75" y1="208.6882" y2="208.6882"/><line style="stroke:#181818;stroke-width:1.0;" x1="285.75" x2="285.75" y1="208.6882" y2="230.6882"/><polygon fill="#181818" points="281.75,220.6882,285.75,230.6882,289.75,220.6882,285.75,224.6882" style="stroke:#181818;stroke-width:1.0;"/><line style="stroke:#181818;stroke-width:1.0;" x1="368.125" x2="426.5" y1="208.6882" y2="208.6882"/><line style="stroke:#181818;stroke-width:1.0;" x1="426.5" x2="426.5" y1="208.6882" y2="230.6882"/><polygon fill="#181818" points="422.5,220.6882,426.5,230.6882,430.5,220.6882,426.5,224.6882" style="stroke:#181818;stroke-width:1.0;"/><line style="stroke:#181818;stroke-width:1.0;" x1="285.75" x2="285.75" y1="548.8145" y2="570.8145"/><line style="stroke:#181818;stroke-width:1.0;" x1="285.75" x2="233.4375" y1="570.8145" y2="570.8145"/><polygon fill="#181818" points="243.4375,566.8145,233.4375,570.8145,243.4375,574.8145,239.4375,570.8145" style="stroke:#181818;stroke-width:1.0;"/><line style="stroke:#181818;stroke-width:1.0;" x1="356.125" x2="356.125" y1="176.6882" y2="196.6882"/><polygon fill="#181818" points="352.125,186.6882,356.125,196.6882,360.125,186.6882,356.125,190.6882" style="stroke:#181818;stroke-width:1.0;"/><line style="stroke:#181818;stroke-width:1.0;" x1="209.4375" x2="86.75" y1="118.3441" y2="118.3441"/><line style="stroke:#181818;stroke-width:1.0;" x1="86.75" x2="86.75" y1="118.3441" y2="140.3441"/><polygon fill="#181818" points="82.75,130.3441,86.75,140.3441,90.75,130.3441,86.75,134.3441" style="stroke:#181818;stroke-width:1.0;"/><line style="stroke:#181818;stroke-width:1.0;" x1="233.4375" x2="356.125" y1="118.3441" y2="118.3441"/><line style="stroke:#181818;stroke-width:1.0;" x1="356.125" x2="356.125" y1="118.3441" y2="140.3441"/><polygon fill="#181818" points="352.125,130.3441,356.125,140.3441,360.125,130.3441,356.125,134.3441" style="stroke:#181818;stroke-width:1.0;"/><line style="stroke:#181818;stroke-width:1.0;" x1="86.75" x2="86.75" y1="329.7206" y2="570.8145"/><line style="stroke:#181818;stroke-width:1.0;" x1="86.75" x2="209.4375" y1="570.8145" y2="570.8145"/><polygon fill="#181818" points="199.4375,566.8145,209.4375,570.8145,199.4375,574.8145,203.4375,570.8145" style="stroke:#181818;stroke-width:1.0;"/><line style="stroke:#181818;stroke-width:1.0;" x1="221.4375" x2="221.4375" y1="86.3441" y2="106.3441"/><polygon fill="#181818" points="217.4375,96.3441,221.4375,106.3441,225.4375,96.3441,221.4375,100.3441" style="stroke:#181818;stroke-width:1.0;"/><line style="stroke:#181818;stroke-width:1.0;" x1="221.4375" x2="221.4375" y1="582.8145" y2="602.8145"/><polygon fill="#181818" points="217.4375,592.8145,221.4375,602.8145,225.4375,592.8145,221.4375,596.8145" style="stroke:#181818;stroke-width:1.0;"/><!--SRC=[TP11YiCm34NtFeMMpXMQLHbcKPXIQEa1F8b2p1ZBM0gz_jXMcvIMRepzzByaVnQNnPZTrqp42ASadc9l_0Is0yzWhsbqWXt8ZD40x8xk3-620GTL0gYsri6w4Bg2YavzxLuWx5FYAiPGfbXUVXdbNQaSQ6glrHD7FnbrNj3bORuxzL5rlMdaUPM9bZX2Hbw2i1hKDDCDVZpNCN3MSlzKRb_JdYjyIUV1-UQbpBTRzy7L9G-HPKsYDRYJ_aLuZVvDkh9DN0BGKOre494-_UqxPygRUKHn3wS6sKx3Gidy0m00]--></g></svg>