<?xml version="1.0" encoding="us-ascii" standalone="no"?><svg xmlns="http://www.w3.org/2000/svg" xmlns:xlink="http://www.w3.org/1999/xlink" contentStyleType="text/css" height="237px" preserveAspectRatio="none" style="width:261px;height:237px;background:#FFFFFF;" version="1.1" viewBox="0 0 261 237" width="261px" zoomAndPan="magnify"><defs/><g><line style="stroke:#181818;stroke-width:0.5;stroke-dasharray:5.0,5.0;" x1="27" x2="27" y1="39.0679" y2="230.598"/><line style="stroke:#181818;stroke-width:0.5;stroke-dasharray:5.0,5.0;" x1="145.5" x2="145.5" y1="39.0679" y2="230.598"/><rect fill="#E2E2F0" height="33.0679" rx="2.5" ry="2.5" style="stroke:#181818;stroke-width:0.5;" width="45" x="5" y="5"/><text fill="#000000" font-family="sans-serif" font-size="14" lengthAdjust="spacing" textLength="31" x="12" y="26.9659">User</text><rect fill="#E2E2F0" height="33.0679" rx="2.5" ry="2.5" style="stroke:#181818;stroke-width:0.5;" width="80" x="105.5" y="5"/><text fill="#000000" font-family="sans-serif" font-size="14" lengthAdjust="spacing" textLength="66" x="112.5" y="26.9659">App Store</text><polygon fill="#181818" points="133.5,68.7739,143.5,72.7739,133.5,76.7739,137.5,72.7739" style="stroke:#181818;stroke-width:1.0;"/><line style="stroke:#181818;stroke-width:1.0;stroke-dasharray:2.0,2.0;" x1="27.5" x2="139.5" y1="72.7739" y2="72.7739"/><text fill="#000000" font-family="sans-serif" font-size="13" font-weight="bold" lengthAdjust="spacing" textLength="7" x="34.5" y="66.9649">1</text><text fill="#000000" font-family="sans-serif" font-size="13" lengthAdjust="spacing" textLength="83" x="45.5" y="66.9649">searchForApp</text><polygon fill="#181818" points="38.5,100.4799,28.5,104.4799,38.5,108.4799,34.5,104.4799" style="stroke:#181818;stroke-width:1.0;"/><line style="stroke:#181818;stroke-width:1.0;stroke-dasharray:2.0,2.0;" x1="32.5" x2="144.5" y1="104.4799" y2="104.4799"/><text fill="#000000" font-family="sans-serif" font-size="13" font-weight="bold" lengthAdjust="spacing" textLength="7" x="44.5" y="98.6709">2</text><text fill="#000000" font-family="sans-serif" font-size="13" lengthAdjust="spacing" textLength="73" x="55.5" y="98.6709">return App[]</text><polygon fill="#181818" points="133.5,132.186,143.5,136.186,133.5,140.186,137.5,136.186" style="stroke:#181818;stroke-width:1.0;"/><line style="stroke:#181818;stroke-width:1.0;stroke-dasharray:2.0,2.0;" x1="27.5" x2="139.5" y1="136.186" y2="136.186"/><text fill="#000000" font-family="sans-serif" font-size="13" font-weight="bold" lengthAdjust="spacing" textLength="7" x="34.5" y="130.377">3</text><text fill="#000000" font-family="sans-serif" font-size="13" lengthAdjust="spacing" textLength="58" x="45.5" y="130.377">selectApp</text><line style="stroke:#181818;stroke-width:1.0;stroke-dasharray:2.0,2.0;" x1="145.5" x2="187.5" y1="167.892" y2="167.892"/><line style="stroke:#181818;stroke-width:1.0;stroke-dasharray:2.0,2.0;" x1="187.5" x2="187.5" y1="167.892" y2="180.892"/><line style="stroke:#181818;stroke-width:1.0;stroke-dasharray:2.0,2.0;" x1="146.5" x2="187.5" y1="180.892" y2="180.892"/><polygon fill="#181818" points="156.5,176.892,146.5,180.892,156.5,184.892,152.5,180.892" style="stroke:#181818;stroke-width:1.0;"/><text fill="#000000" font-family="sans-serif" font-size="13" font-weight="bold" lengthAdjust="spacing" textLength="7" x="152.5" y="162.083">4</text><text fill="#000000" font-family="sans-serif" font-size="13" lengthAdjust="spacing" textLength="91" x="163.5" y="162.083">install/uninstall</text><polygon fill="#181818" points="38.5,208.598,28.5,212.598,38.5,216.598,34.5,212.598" style="stroke:#181818;stroke-width:1.0;"/><line style="stroke:#181818;stroke-width:1.0;stroke-dasharray:2.0,2.0;" x1="32.5" x2="144.5" y1="212.598" y2="212.598"/><text fill="#000000" font-family="sans-serif" font-size="13" font-weight="bold" lengthAdjust="spacing" textLength="7" x="44.5" y="206.789">5</text><text fill="#000000" font-family="sans-serif" font-size="13" lengthAdjust="spacing" textLength="38" x="55.5" y="206.789">return</text><!--SRC=[TOsn2W8n38RtF4NeVhZV8BZu0k8a3haQkK9jGvg2Zt-z8YUYRd_ulezGjPpgOsA5ETmOxpdRb9y0Gch11w5aM0ihKa5tRiDz818vMLRk-222_N80lHc6_MQCM9ZKpyUipOCjN9rL7b7PgYPiz7BztKVszXM_XP2AKOoxcbxh_nTO0000]--></g></svg>