<?xml version="1.0" encoding="us-ascii" standalone="no"?><svg xmlns="http://www.w3.org/2000/svg" xmlns:xlink="http://www.w3.org/1999/xlink" contentStyleType="text/css" height="338px" preserveAspectRatio="none" style="width:813px;height:338px;background:#FFFFFF;" version="1.1" viewBox="0 0 813 338" width="813px" zoomAndPan="magnify"><defs/><g><!--cluster App Store--><g id="cluster_App Store"><path d="M86.5,6.602 L156.5,6.602 A3.75,3.75 0 0 1 159,9.102 L166,31.6699 L803.61,31.6699 A2.5,2.5 0 0 1 806.11,34.1699 L806.11,329.102 A2.5,2.5 0 0 1 803.61,331.602 L86.5,331.602 A2.5,2.5 0 0 1 84,329.102 L84,9.102 A2.5,2.5 0 0 1 86.5,6.602 " fill="none" style="stroke:#000000;stroke-width:1.5;"/><line style="stroke:#000000;stroke-width:1.5;" x1="84" x2="166" y1="31.6699" y2="31.6699"/><text fill="#000000" font-family="sans-serif" font-size="14" font-weight="bold" lengthAdjust="spacing" textLength="69" x="88" y="23.5679">App Store</text></g><g id="elem_install"><ellipse cx="734.5355" cy="280.5975" fill="#F1F1F1" rx="41.9555" ry="16.7556" style="stroke:#181818;stroke-width:0.5;"/><text fill="#000000" font-family="sans-serif" font-size="14" lengthAdjust="spacing" textLength="42" x="710.5355" y="285.3305">Install</text></g><g id="elem_uninstall"><ellipse cx="734.5427" cy="203.6023" fill="#F1F1F1" rx="55.5627" ry="16.9203" style="stroke:#181818;stroke-width:0.5;"/><text fill="#000000" font-family="sans-serif" font-size="14" lengthAdjust="spacing" textLength="60" x="701.5427" y="208.3352">Uninstall</text></g><g id="elem_update"><ellipse cx="170.0259" cy="117.6028" fill="#F1F1F1" rx="47.2459" ry="16.8308" style="stroke:#181818;stroke-width:0.5;"/><text fill="#000000" font-family="sans-serif" font-size="14" lengthAdjust="spacing" textLength="49" x="142.5259" y="122.3357">Update</text></g><g id="elem_updateSubset"><ellipse cx="473.5193" cy="147.603" fill="#F1F1F1" rx="81.4593" ry="30.201" style="stroke:#181818;stroke-width:0.5;"/><text fill="#000000" font-family="sans-serif" font-size="14" lengthAdjust="spacing" textLength="98" x="421.5193" y="142.802">Update subset</text><text fill="#000000" font-family="sans-serif" font-size="14" lengthAdjust="spacing" textLength="51" x="447.0193" y="161.8699">of Apps</text></g><g id="elem_updateAll"><ellipse cx="473.5161" cy="63.5972" fill="#F1F1F1" rx="81.2761" ry="18.6552" style="stroke:#181818;stroke-width:0.5;"/><text fill="#000000" font-family="sans-serif" font-size="14" lengthAdjust="spacing" textLength="107" x="417.0161" y="68.3302">Update all Apps</text></g><g id="elem_findApp"><ellipse cx="170.0317" cy="215.6022" fill="#F1F1F1" rx="70.0317" ry="45.8502" style="stroke:#181818;stroke-width:0.5;"/><text fill="#000000" font-family="sans-serif" font-size="14" lengthAdjust="spacing" textLength="60" x="132.5317" y="195.9662">Find App</text><line style="stroke:#181818;stroke-width:1.0;" x1="105.1417" x2="234.9217" y1="200.0682" y2="200.0682"/><text fill="#000000" font-family="sans-serif" font-size="14" lengthAdjust="spacing" textLength="90" x="117.5317" y="219.0341">found results</text><text fill="#000000" font-family="sans-serif" font-size="14" lengthAdjust="spacing" textLength="67" x="129.0317" y="238.1021">no results</text></g><g id="elem_selectApp"><ellipse cx="473.5219" cy="298.5986" fill="#F1F1F1" rx="63.8819" ry="16.9866" style="stroke:#181818;stroke-width:0.5;"/><text fill="#000000" font-family="sans-serif" font-size="14" lengthAdjust="spacing" textLength="71" x="435.0219" y="303.3316">Select App</text></g><g id="elem_showError"><ellipse cx="473.521" cy="229.6038" fill="#F1F1F1" rx="66.151" ry="17.0018" style="stroke:#181818;stroke-width:0.5;"/><text fill="#000000" font-family="sans-serif" font-size="14" lengthAdjust="spacing" textLength="74" x="433.521" y="234.3368">Show Error</text></g><!--entity user--><g id="elem_user"><ellipse cx="21.5" cy="136.572" fill="#F1F1F1" rx="8" ry="8" style="stroke:#181818;stroke-width:0.5;"/><path d="M21.5,144.572 L21.5,171.572 M8.5,152.572 L34.5,152.572 M21.5,171.572 L8.5,186.572 M21.5,171.572 L34.5,186.572 " fill="none" style="stroke:#181818;stroke-width:0.5;"/><text fill="#000000" font-family="sans-serif" font-size="14" lengthAdjust="spacing" textLength="31" x="6" y="203.0379">User</text></g><!--link user to update--><g id="link_user_update"><path d="M37.36,162.532 C60.06,154.782 103.99,139.792 134.84,129.272 " fill="none" id="user-update" style="stroke:#181818;stroke-width:1.0;"/></g><!--link user to findApp--><g id="link_user_findApp"><path d="M37.36,172.472 C53.73,177.832 81.14,186.812 106.73,195.192 " fill="none" id="user-findApp" style="stroke:#181818;stroke-width:1.0;"/></g><!--reverse link update to updateAll--><g id="link_update_updateAll"><path d="M230.6682,106.9192 C281.3182,97.8492 349.33,85.672 408.32,75.102 " fill="none" id="update-backto-updateAll" style="stroke:#181818;stroke-width:1.0;"/><polygon fill="none" points="212.95,110.092,231.7258,112.8252,229.6106,101.0131,212.95,110.092" style="stroke:#181818;stroke-width:1.0;"/></g><!--reverse link update to updateSubset--><g id="link_update_updateSubset"><path d="M233.7514,123.8455 C280.7514,128.5255 337.61,134.182 394.36,139.822 " fill="none" id="update-backto-updateSubset" style="stroke:#181818;stroke-width:1.0;"/><polygon fill="none" points="215.84,122.062,233.1569,129.816,234.3459,117.875,215.84,122.062" style="stroke:#181818;stroke-width:1.0;"/></g><!--reverse link findApp to selectApp--><g id="link_findApp_selectApp"><path d="M226.3608,250.3053 C241.5708,258.7153 253.43,264.072 270.06,269.602 C315.72,284.772 369.77,292.002 410.53,295.462 " fill="none" id="findApp-backto-selectApp" style="stroke:#181818;stroke-width:1.0;stroke-dasharray:7.0,7.0;"/><polygon fill="#181818" points="221.11,247.402,227.0507,255.2575,225.4857,249.8214,230.9217,248.2564,221.11,247.402" style="stroke:#181818;stroke-width:1.0;"/><text fill="#000000" font-family="sans-serif" font-size="13" lengthAdjust="spacing" textLength="56" x="288.06" y="247.499">&#171;extend&#187;</text><text fill="#000000" font-family="sans-serif" font-size="13" lengthAdjust="spacing" textLength="87" x="274.06" y="265.205">(found results)</text></g><!--reverse link findApp to showError--><g id="link_findApp_showError"><path d="M246.1935,219.0909 C296.6935,221.4409 358.69,224.312 408.06,226.612 " fill="none" id="findApp-backto-showError" style="stroke:#181818;stroke-width:1.0;stroke-dasharray:7.0,7.0;"/><polygon fill="#181818" points="240.2,218.812,249.0043,223.226,245.1946,219.0444,249.3762,215.2347,240.2,218.812" style="stroke:#181818;stroke-width:1.0;"/><text fill="#000000" font-family="sans-serif" font-size="13" lengthAdjust="spacing" textLength="56" x="288.06" y="198.499">&#171;extend&#187;</text><text fill="#000000" font-family="sans-serif" font-size="13" lengthAdjust="spacing" textLength="67" x="284.06" y="216.205">(no results)</text></g><!--reverse link selectApp to install--><g id="link_selectApp_install"><path d="M541.8956,293.9171 C590.3656,290.5571 650.65,286.362 692.78,283.432 " fill="none" id="selectApp-backto-install" style="stroke:#181818;stroke-width:1.0;stroke-dasharray:7.0,7.0;"/><polygon fill="#181818" points="535.91,294.332,545.1651,297.7,540.898,293.9862,544.6118,289.7192,535.91,294.332" style="stroke:#181818;stroke-width:1.0;"/><text fill="#000000" font-family="sans-serif" font-size="13" lengthAdjust="spacing" textLength="56" x="588.98" y="264.499">&#171;extend&#187;</text><text fill="#000000" font-family="sans-serif" font-size="13" lengthAdjust="spacing" textLength="43" x="596.98" y="282.205">(install)</text></g><!--reverse link selectApp to uninstall--><g id="link_selectApp_uninstall"><path d="M517.7985,282.5231 C531.5785,276.9231 541.53,272.242 554.98,264.602 C569.36,256.442 570.06,249.712 584.98,242.602 C616.64,227.512 654.97,217.642 684.77,211.602 " fill="none" id="selectApp-backto-uninstall" style="stroke:#181818;stroke-width:1.0;stroke-dasharray:7.0,7.0;"/><polygon fill="#181818" points="512.24,284.782,522.0837,285.0993,516.8721,282.8996,519.0719,277.6879,512.24,284.782" style="stroke:#181818;stroke-width:1.0;"/><text fill="#000000" font-family="sans-serif" font-size="13" lengthAdjust="spacing" textLength="56" x="588.98" y="198.499">&#171;extend&#187;</text><text fill="#000000" font-family="sans-serif" font-size="13" lengthAdjust="spacing" textLength="59" x="588.98" y="216.205">(uninstall)</text></g><!--SRC=[TPB9JiCm48RlVegHJ_JGFW2AAlK04kUeDouccRGMaHrv4KZ0kpFUufeKN-oP-VxPP34uRU1iqO2muEbcR173kxWWyDEoG4znvF35WCwCamEdmSZBrS4e3GvEQiLYaCI3i0XIMIVcEUJZB-dD6y2hM-HSh3_GCWg7YOZFU-7UlrbqDn3Ow7bLe2UWzkqzrQbKpYN8tAAJL6EOFu3Fz0v81FRxU4tQazEWzREpqQDqO_9sAxp7cROLql2Gr4Qp9AtKLN_0ap7Q98hCQAt933MGvsXSkT_CfScwxvMbcV-9f1qcNHcwEnngW_08lElmqw4QZqTQxKCp-uvlfQNhhRGkQPSNLEi4QVaP6s4Ev6gjg7weZMmDaV27_G80]--></g></svg>