<?xml version="1.0" encoding="us-ascii" standalone="no"?><svg xmlns="http://www.w3.org/2000/svg" xmlns:xlink="http://www.w3.org/1999/xlink" contentStyleType="text/css" height="651.2px" preserveAspectRatio="none" style="width:453px;height:651px;background:#FFFFFF;" version="1.1" viewBox="0 0 453 651" width="453.6px" zoomAndPan="magnify"><defs/><g><!--class Account--><g id="elem_Account"><rect codeLine="3" fill="#F1F1F1" height="97.9875" id="Account" rx="2" ry="2" style="stroke:#181818;stroke-width:0.4000000000000001;" width="90.4" x="46" y="13.2"/><ellipse cx="68.8" cy="26" fill="#ADD1B2" rx="8.8" ry="8.8" style="stroke:#181818;stroke-width:0.8000000000000002;"/><path d="M71.0125,22.7 Q71.1375,22.525 71.2875,22.4375 Q71.4375,22.35 71.6125,22.35 Q71.9125,22.35 72.1,22.5625 Q72.2875,22.7625 72.2875,23.25 L72.2875,24.4125 Q72.2875,24.9 72.1,25.1125 Q71.9125,25.325 71.6125,25.325 Q71.3375,25.325 71.175,25.1625 Q71.0125,25.0125 70.925,24.6 Q70.8875,24.3125 70.7375,24.1625 Q70.475,23.8625 69.9875,23.6875 Q69.5,23.5125 69,23.5125 Q68.3875,23.5125 67.875,23.775 Q67.375,24.0375 66.975,24.6375 Q66.5875,25.2375 66.5875,26.0625 L66.5875,26.9375 Q66.5875,27.925 67.3,28.5875 Q68.0125,29.2375 69.2875,29.2375 Q70.0375,29.2375 70.5625,29.0375 Q70.875,28.9125 71.2125,28.5625 Q71.425,28.35 71.5375,28.2875 Q71.6625,28.225 71.825,28.225 Q72.0875,28.225 72.2875,28.4375 Q72.5,28.6375 72.5,28.9125 Q72.5,29.1875 72.225,29.5125 Q71.825,29.975 71.1875,30.2375 Q70.325,30.6 69.2875,30.6 Q68.075,30.6 67.1125,30.1 Q66.325,29.7 65.775,28.85 Q65.225,27.9875 65.225,26.9625 L65.225,26.0375 Q65.225,24.975 65.7125,24.0625 Q66.2125,23.1375 67.0875,22.65 Q67.9625,22.15 68.95,22.15 Q69.5375,22.15 70.05,22.2875 Q70.575,22.4125 71.0125,22.7 Z " fill="#000000"/><text fill="#000000" font-family="sans-serif" font-size="11.2" lengthAdjust="spacing" textLength="40.8" x="82.4" y="30.6375">Account</text><line style="stroke:#181818;stroke-width:0.4000000000000001;" x1="46.8" x2="135.6" y1="38.8" y2="38.8"/><rect fill="none" height="4.8" style="stroke:#C82930;stroke-width:0.8000000000000002;" width="4.8" x="52.4" y="48.2484"/><text fill="#000000" font-family="sans-serif" font-size="11.2" lengthAdjust="spacing" textLength="65.6" x="62" y="54.0859">name : string</text><rect fill="none" height="4.8" style="stroke:#C82930;stroke-width:0.8000000000000002;" width="4.8" x="52.4" y="63.1453"/><text fill="#000000" font-family="sans-serif" font-size="11.2" lengthAdjust="spacing" textLength="69.6" x="62" y="68.9828">phone : string</text><rect fill="none" height="4.8" style="stroke:#C82930;stroke-width:0.8000000000000002;" width="4.8" x="52.4" y="78.0422"/><text fill="#000000" font-family="sans-serif" font-size="11.2" lengthAdjust="spacing" textLength="57.6" x="62" y="83.8797">mail : string</text><line style="stroke:#181818;stroke-width:0.4000000000000001;" x1="46.8" x2="135.6" y1="89.8906" y2="89.8906"/><ellipse cx="54.8" cy="101.7391" fill="#84BE84" rx="2.4" ry="2.4" style="stroke:#038048;stroke-width:0.8000000000000002;"/><text fill="#000000" font-family="sans-serif" font-size="11.2" lengthAdjust="spacing" textLength="32" x="62" y="105.1766">login()</text></g><!--class Interface--><g id="elem_Interface"><rect codeLine="10" fill="#F1F1F1" height="112.8844" id="Interface" rx="2" ry="2" style="stroke:#181818;stroke-width:0.4000000000000001;" width="128.8" x="164.4" y="5.6"/><ellipse cx="203.4" cy="18.4" fill="#ADD1B2" rx="8.8" ry="8.8" style="stroke:#181818;stroke-width:0.8000000000000002;"/><path d="M205.6125,15.1 Q205.7375,14.925 205.8875,14.8375 Q206.0375,14.75 206.2125,14.75 Q206.5125,14.75 206.7,14.9625 Q206.8875,15.1625 206.8875,15.65 L206.8875,16.8125 Q206.8875,17.3 206.7,17.5125 Q206.5125,17.725 206.2125,17.725 Q205.9375,17.725 205.775,17.5625 Q205.6125,17.4125 205.525,17 Q205.4875,16.7125 205.3375,16.5625 Q205.075,16.2625 204.5875,16.0875 Q204.1,15.9125 203.6,15.9125 Q202.9875,15.9125 202.475,16.175 Q201.975,16.4375 201.575,17.0375 Q201.1875,17.6375 201.1875,18.4625 L201.1875,19.3375 Q201.1875,20.325 201.9,20.9875 Q202.6125,21.6375 203.8875,21.6375 Q204.6375,21.6375 205.1625,21.4375 Q205.475,21.3125 205.8125,20.9625 Q206.025,20.75 206.1375,20.6875 Q206.2625,20.625 206.425,20.625 Q206.6875,20.625 206.8875,20.8375 Q207.1,21.0375 207.1,21.3125 Q207.1,21.5875 206.825,21.9125 Q206.425,22.375 205.7875,22.6375 Q204.925,23 203.8875,23 Q202.675,23 201.7125,22.5 Q200.925,22.1 200.375,21.25 Q199.825,20.3875 199.825,19.3625 L199.825,18.4375 Q199.825,17.375 200.3125,16.4625 Q200.8125,15.5375 201.6875,15.05 Q202.5625,14.55 203.55,14.55 Q204.1375,14.55 204.65,14.6875 Q205.175,14.8125 205.6125,15.1 Z " fill="#000000"/><text fill="#000000" font-family="sans-serif" font-size="11.2" lengthAdjust="spacing" textLength="44" x="219.8" y="23.0375">Interface</text><line style="stroke:#181818;stroke-width:0.4000000000000001;" x1="165.2" x2="292.4" y1="31.2" y2="31.2"/><rect fill="none" height="4.8" style="stroke:#C82930;stroke-width:0.8000000000000002;" width="4.8" x="170.8" y="40.6484"/><text fill="#000000" font-family="sans-serif" font-size="11.2" lengthAdjust="spacing" textLength="80.8" x="180.4" y="46.4859">day : Daily_view</text><rect fill="none" height="4.8" style="stroke:#C82930;stroke-width:0.8000000000000002;" width="4.8" x="170.8" y="55.5453"/><text fill="#000000" font-family="sans-serif" font-size="11.2" lengthAdjust="spacing" textLength="108" x="180.4" y="61.3828">month : Monthly_view</text><rect fill="none" height="4.8" style="stroke:#C82930;stroke-width:0.8000000000000002;" width="4.8" x="170.8" y="70.4422"/><text fill="#000000" font-family="sans-serif" font-size="11.2" lengthAdjust="spacing" textLength="92" x="180.4" y="76.2797">year : Yearly_view</text><rect fill="none" height="4.8" style="stroke:#C82930;stroke-width:0.8000000000000002;" width="4.8" x="170.8" y="85.3391"/><text fill="#000000" font-family="sans-serif" font-size="11.2" lengthAdjust="spacing" textLength="68.8" x="180.4" y="91.1766">list : List_view</text><line style="stroke:#181818;stroke-width:0.4000000000000001;" x1="165.2" x2="292.4" y1="97.1875" y2="97.1875"/><ellipse cx="173.2" cy="109.0359" fill="#84BE84" rx="2.4" ry="2.4" style="stroke:#038048;stroke-width:0.8000000000000002;"/><text fill="#000000" font-family="sans-serif" font-size="11.2" lengthAdjust="spacing" textLength="66.4" x="180.4" y="112.4734">create_new()</text></g><!--class Daily_view--><g id="elem_Daily_view"><rect codeLine="18" fill="#F1F1F1" height="97.9875" id="Daily_view" rx="2" ry="2" style="stroke:#181818;stroke-width:0.4000000000000001;" width="89.6" x="5.6" y="181.6"/><ellipse cx="22.64" cy="194.4" fill="#ADD1B2" rx="8.8" ry="8.8" style="stroke:#181818;stroke-width:0.8000000000000002;"/><path d="M24.8525,191.1 Q24.9775,190.925 25.1275,190.8375 Q25.2775,190.75 25.4525,190.75 Q25.7525,190.75 25.94,190.9625 Q26.1275,191.1625 26.1275,191.65 L26.1275,192.8125 Q26.1275,193.3 25.94,193.5125 Q25.7525,193.725 25.4525,193.725 Q25.1775,193.725 25.015,193.5625 Q24.8525,193.4125 24.765,193 Q24.7275,192.7125 24.5775,192.5625 Q24.315,192.2625 23.8275,192.0875 Q23.34,191.9125 22.84,191.9125 Q22.2275,191.9125 21.715,192.175 Q21.215,192.4375 20.815,193.0375 Q20.4275,193.6375 20.4275,194.4625 L20.4275,195.3375 Q20.4275,196.325 21.14,196.9875 Q21.8525,197.6375 23.1275,197.6375 Q23.8775,197.6375 24.4025,197.4375 Q24.715,197.3125 25.0525,196.9625 Q25.265,196.75 25.3775,196.6875 Q25.5025,196.625 25.665,196.625 Q25.9275,196.625 26.1275,196.8375 Q26.34,197.0375 26.34,197.3125 Q26.34,197.5875 26.065,197.9125 Q25.665,198.375 25.0275,198.6375 Q24.165,199 23.1275,199 Q21.915,199 20.9525,198.5 Q20.165,198.1 19.615,197.25 Q19.065,196.3875 19.065,195.3625 L19.065,194.4375 Q19.065,193.375 19.5525,192.4625 Q20.0525,191.5375 20.9275,191.05 Q21.8025,190.55 22.79,190.55 Q23.3775,190.55 23.89,190.6875 Q24.415,190.8125 24.8525,191.1 Z " fill="#000000"/><text fill="#000000" font-family="sans-serif" font-size="11.2" lengthAdjust="spacing" textLength="52.8" x="34.96" y="199.0375">Daily_view</text><line style="stroke:#181818;stroke-width:0.4000000000000001;" x1="6.4" x2="94.4" y1="207.2" y2="207.2"/><rect fill="none" height="4.8" style="stroke:#C82930;stroke-width:0.8000000000000002;" width="4.8" x="12" y="216.6484"/><text fill="#000000" font-family="sans-serif" font-size="11.2" lengthAdjust="spacing" textLength="44" x="21.6" y="222.4859">year : int</text><rect fill="none" height="4.8" style="stroke:#C82930;stroke-width:0.8000000000000002;" width="4.8" x="12" y="231.5453"/><text fill="#000000" font-family="sans-serif" font-size="11.2" lengthAdjust="spacing" textLength="68.8" x="21.6" y="237.3828">month : string</text><rect fill="none" height="4.8" style="stroke:#C82930;stroke-width:0.8000000000000002;" width="4.8" x="12" y="246.4422"/><text fill="#000000" font-family="sans-serif" font-size="11.2" lengthAdjust="spacing" textLength="40" x="21.6" y="252.2797">day : int</text><rect fill="none" height="4.8" style="stroke:#C82930;stroke-width:0.8000000000000002;" width="4.8" x="12" y="261.3391"/><text fill="#000000" font-family="sans-serif" font-size="11.2" lengthAdjust="spacing" textLength="67.2" x="21.6" y="267.1766">data : Event[]</text><line style="stroke:#181818;stroke-width:0.4000000000000001;" x1="6.4" x2="94.4" y1="273.1875" y2="273.1875"/></g><!--class Monthly_view--><g id="elem_Monthly_view"><rect codeLine="25" fill="#F1F1F1" height="83.0906" id="Monthly_view" rx="2" ry="2" style="stroke:#181818;stroke-width:0.4000000000000001;" width="92.8" x="123.2" y="188.8"/><ellipse cx="135.2" cy="201.6" fill="#ADD1B2" rx="8.8" ry="8.8" style="stroke:#181818;stroke-width:0.8000000000000002;"/><path d="M137.4125,198.3 Q137.5375,198.125 137.6875,198.0375 Q137.8375,197.95 138.0125,197.95 Q138.3125,197.95 138.5,198.1625 Q138.6875,198.3625 138.6875,198.85 L138.6875,200.0125 Q138.6875,200.5 138.5,200.7125 Q138.3125,200.925 138.0125,200.925 Q137.7375,200.925 137.575,200.7625 Q137.4125,200.6125 137.325,200.2 Q137.2875,199.9125 137.1375,199.7625 Q136.875,199.4625 136.3875,199.2875 Q135.9,199.1125 135.4,199.1125 Q134.7875,199.1125 134.275,199.375 Q133.775,199.6375 133.375,200.2375 Q132.9875,200.8375 132.9875,201.6625 L132.9875,202.5375 Q132.9875,203.525 133.7,204.1875 Q134.4125,204.8375 135.6875,204.8375 Q136.4375,204.8375 136.9625,204.6375 Q137.275,204.5125 137.6125,204.1625 Q137.825,203.95 137.9375,203.8875 Q138.0625,203.825 138.225,203.825 Q138.4875,203.825 138.6875,204.0375 Q138.9,204.2375 138.9,204.5125 Q138.9,204.7875 138.625,205.1125 Q138.225,205.575 137.5875,205.8375 Q136.725,206.2 135.6875,206.2 Q134.475,206.2 133.5125,205.7 Q132.725,205.3 132.175,204.45 Q131.625,203.5875 131.625,202.5625 L131.625,201.6375 Q131.625,200.575 132.1125,199.6625 Q132.6125,198.7375 133.4875,198.25 Q134.3625,197.75 135.35,197.75 Q135.9375,197.75 136.45,197.8875 Q136.975,198.0125 137.4125,198.3 Z " fill="#000000"/><text fill="#000000" font-family="sans-serif" font-size="11.2" lengthAdjust="spacing" textLength="67.2" x="146.4" y="206.2375">Monthly_view</text><line style="stroke:#181818;stroke-width:0.4000000000000001;" x1="124" x2="215.2" y1="214.4" y2="214.4"/><rect fill="none" height="4.8" style="stroke:#C82930;stroke-width:0.8000000000000002;" width="4.8" x="129.6" y="223.8484"/><text fill="#000000" font-family="sans-serif" font-size="11.2" lengthAdjust="spacing" textLength="44" x="139.2" y="229.6859">year : int</text><rect fill="none" height="4.8" style="stroke:#C82930;stroke-width:0.8000000000000002;" width="4.8" x="129.6" y="238.7453"/><text fill="#000000" font-family="sans-serif" font-size="11.2" lengthAdjust="spacing" textLength="68.8" x="139.2" y="244.5828">month : string</text><rect fill="none" height="4.8" style="stroke:#C82930;stroke-width:0.8000000000000002;" width="4.8" x="129.6" y="253.6422"/><text fill="#000000" font-family="sans-serif" font-size="11.2" lengthAdjust="spacing" textLength="67.2" x="139.2" y="259.4797">data : Event[]</text><line style="stroke:#181818;stroke-width:0.4000000000000001;" x1="124" x2="215.2" y1="265.4906" y2="265.4906"/></g><!--class Yearly_view--><g id="elem_Yearly_view"><rect codeLine="31" fill="#F1F1F1" height="68.1938" id="Yearly_view" rx="2" ry="2" style="stroke:#181818;stroke-width:0.4000000000000001;" width="88" x="244" y="196.4"/><ellipse cx="257.08" cy="209.2" fill="#ADD1B2" rx="8.8" ry="8.8" style="stroke:#181818;stroke-width:0.8000000000000002;"/><path d="M259.2925,205.9 Q259.4175,205.725 259.5675,205.6375 Q259.7175,205.55 259.8925,205.55 Q260.1925,205.55 260.38,205.7625 Q260.5675,205.9625 260.5675,206.45 L260.5675,207.6125 Q260.5675,208.1 260.38,208.3125 Q260.1925,208.525 259.8925,208.525 Q259.6175,208.525 259.455,208.3625 Q259.2925,208.2125 259.205,207.8 Q259.1675,207.5125 259.0175,207.3625 Q258.755,207.0625 258.2675,206.8875 Q257.78,206.7125 257.28,206.7125 Q256.6675,206.7125 256.155,206.975 Q255.655,207.2375 255.255,207.8375 Q254.8675,208.4375 254.8675,209.2625 L254.8675,210.1375 Q254.8675,211.125 255.58,211.7875 Q256.2925,212.4375 257.5675,212.4375 Q258.3175,212.4375 258.8425,212.2375 Q259.155,212.1125 259.4925,211.7625 Q259.705,211.55 259.8175,211.4875 Q259.9425,211.425 260.105,211.425 Q260.3675,211.425 260.5675,211.6375 Q260.78,211.8375 260.78,212.1125 Q260.78,212.3875 260.505,212.7125 Q260.105,213.175 259.4675,213.4375 Q258.605,213.8 257.5675,213.8 Q256.355,213.8 255.3925,213.3 Q254.605,212.9 254.055,212.05 Q253.505,211.1875 253.505,210.1625 L253.505,209.2375 Q253.505,208.175 253.9925,207.2625 Q254.4925,206.3375 255.3675,205.85 Q256.2425,205.35 257.23,205.35 Q257.8175,205.35 258.33,205.4875 Q258.855,205.6125 259.2925,205.9 Z " fill="#000000"/><text fill="#000000" font-family="sans-serif" font-size="11.2" lengthAdjust="spacing" textLength="60" x="268.52" y="213.8375">Yearly_view</text><line style="stroke:#181818;stroke-width:0.4000000000000001;" x1="244.8" x2="331.2" y1="222" y2="222"/><rect fill="none" height="4.8" style="stroke:#C82930;stroke-width:0.8000000000000002;" width="4.8" x="250.4" y="231.4484"/><text fill="#000000" font-family="sans-serif" font-size="11.2" lengthAdjust="spacing" textLength="44" x="260" y="237.2859">year : int</text><rect fill="none" height="4.8" style="stroke:#C82930;stroke-width:0.8000000000000002;" width="4.8" x="250.4" y="246.3453"/><text fill="#000000" font-family="sans-serif" font-size="11.2" lengthAdjust="spacing" textLength="67.2" x="260" y="252.1828">data : Event[]</text><line style="stroke:#181818;stroke-width:0.4000000000000001;" x1="244.8" x2="331.2" y1="258.1938" y2="258.1938"/></g><!--class List_view--><g id="elem_List_view"><rect codeLine="36" fill="#F1F1F1" height="53.2969" id="List_view" rx="2" ry="2" style="stroke:#181818;stroke-width:0.4000000000000001;" width="88" x="360" y="203.6"/><ellipse cx="379.56" cy="216.4" fill="#ADD1B2" rx="8.8" ry="8.8" style="stroke:#181818;stroke-width:0.8000000000000002;"/><path d="M381.7725,213.1 Q381.8975,212.925 382.0475,212.8375 Q382.1975,212.75 382.3725,212.75 Q382.6725,212.75 382.86,212.9625 Q383.0475,213.1625 383.0475,213.65 L383.0475,214.8125 Q383.0475,215.3 382.86,215.5125 Q382.6725,215.725 382.3725,215.725 Q382.0975,215.725 381.935,215.5625 Q381.7725,215.4125 381.685,215 Q381.6475,214.7125 381.4975,214.5625 Q381.235,214.2625 380.7475,214.0875 Q380.26,213.9125 379.76,213.9125 Q379.1475,213.9125 378.635,214.175 Q378.135,214.4375 377.735,215.0375 Q377.3475,215.6375 377.3475,216.4625 L377.3475,217.3375 Q377.3475,218.325 378.06,218.9875 Q378.7725,219.6375 380.0475,219.6375 Q380.7975,219.6375 381.3225,219.4375 Q381.635,219.3125 381.9725,218.9625 Q382.185,218.75 382.2975,218.6875 Q382.4225,218.625 382.585,218.625 Q382.8475,218.625 383.0475,218.8375 Q383.26,219.0375 383.26,219.3125 Q383.26,219.5875 382.985,219.9125 Q382.585,220.375 381.9475,220.6375 Q381.085,221 380.0475,221 Q378.835,221 377.8725,220.5 Q377.085,220.1 376.535,219.25 Q375.985,218.3875 375.985,217.3625 L375.985,216.4375 Q375.985,215.375 376.4725,214.4625 Q376.9725,213.5375 377.8475,213.05 Q378.7225,212.55 379.71,212.55 Q380.2975,212.55 380.81,212.6875 Q381.335,212.8125 381.7725,213.1 Z " fill="#000000"/><text fill="#000000" font-family="sans-serif" font-size="11.2" lengthAdjust="spacing" textLength="45.6" x="392.44" y="221.0375">List_view</text><line style="stroke:#181818;stroke-width:0.4000000000000001;" x1="360.8" x2="447.2" y1="229.2" y2="229.2"/><rect fill="none" height="4.8" style="stroke:#C82930;stroke-width:0.8000000000000002;" width="4.8" x="366.4" y="238.6484"/><text fill="#000000" font-family="sans-serif" font-size="11.2" lengthAdjust="spacing" textLength="67.2" x="376" y="244.4859">data : Event[]</text><line style="stroke:#181818;stroke-width:0.4000000000000001;" x1="360.8" x2="447.2" y1="250.4969" y2="250.4969"/></g><!--class Event--><g id="elem_Event"><rect codeLine="40" fill="#F1F1F1" height="187.3688" id="Event" rx="2" ry="2" style="stroke:#181818;stroke-width:0.4000000000000001;" width="97.6" x="179.2" y="342.4"/><ellipse cx="210.64" cy="355.2" fill="#ADD1B2" rx="8.8" ry="8.8" style="stroke:#181818;stroke-width:0.8000000000000002;"/><path d="M212.8525,351.9 Q212.9775,351.725 213.1275,351.6375 Q213.2775,351.55 213.4525,351.55 Q213.7525,351.55 213.94,351.7625 Q214.1275,351.9625 214.1275,352.45 L214.1275,353.6125 Q214.1275,354.1 213.94,354.3125 Q213.7525,354.525 213.4525,354.525 Q213.1775,354.525 213.015,354.3625 Q212.8525,354.2125 212.765,353.8 Q212.7275,353.5125 212.5775,353.3625 Q212.315,353.0625 211.8275,352.8875 Q211.34,352.7125 210.84,352.7125 Q210.2275,352.7125 209.715,352.975 Q209.215,353.2375 208.815,353.8375 Q208.4275,354.4375 208.4275,355.2625 L208.4275,356.1375 Q208.4275,357.125 209.14,357.7875 Q209.8525,358.4375 211.1275,358.4375 Q211.8775,358.4375 212.4025,358.2375 Q212.715,358.1125 213.0525,357.7625 Q213.265,357.55 213.3775,357.4875 Q213.5025,357.425 213.665,357.425 Q213.9275,357.425 214.1275,357.6375 Q214.34,357.8375 214.34,358.1125 Q214.34,358.3875 214.065,358.7125 Q213.665,359.175 213.0275,359.4375 Q212.165,359.8 211.1275,359.8 Q209.915,359.8 208.9525,359.3 Q208.165,358.9 207.615,358.05 Q207.065,357.1875 207.065,356.1625 L207.065,355.2375 Q207.065,354.175 207.5525,353.2625 Q208.0525,352.3375 208.9275,351.85 Q209.8025,351.35 210.79,351.35 Q211.3775,351.35 211.89,351.4875 Q212.415,351.6125 212.8525,351.9 Z " fill="#000000"/><text fill="#000000" font-family="sans-serif" font-size="11.2" lengthAdjust="spacing" textLength="28.8" x="226.16" y="359.8375">Event</text><line style="stroke:#181818;stroke-width:0.4000000000000001;" x1="180" x2="276" y1="368" y2="368"/><rect fill="none" height="4.8" style="stroke:#C82930;stroke-width:0.8000000000000002;" width="4.8" x="185.6" y="377.4484"/><text fill="#000000" font-family="sans-serif" font-size="11.2" lengthAdjust="spacing" textLength="65.6" x="195.2" y="383.2859">name : string</text><rect fill="none" height="4.8" style="stroke:#C82930;stroke-width:0.8000000000000002;" width="4.8" x="185.6" y="392.3453"/><text fill="#000000" font-family="sans-serif" font-size="11.2" lengthAdjust="spacing" textLength="44" x="195.2" y="398.1828">date : int</text><rect fill="none" height="4.8" style="stroke:#C82930;stroke-width:0.8000000000000002;" width="4.8" x="185.6" y="407.2422"/><text fill="#000000" font-family="sans-serif" font-size="11.2" lengthAdjust="spacing" textLength="53.6" x="195.2" y="413.0797">start_t : int</text><rect fill="none" height="4.8" style="stroke:#C82930;stroke-width:0.8000000000000002;" width="4.8" x="185.6" y="422.1391"/><text fill="#000000" font-family="sans-serif" font-size="11.2" lengthAdjust="spacing" textLength="50.4" x="195.2" y="427.9766">end_t : int</text><rect fill="none" height="4.8" style="stroke:#C82930;stroke-width:0.8000000000000002;" width="4.8" x="185.6" y="437.0359"/><text fill="#000000" font-family="sans-serif" font-size="11.2" lengthAdjust="spacing" textLength="67.2" x="195.2" y="442.8734">alerts : Alert[]</text><line style="stroke:#181818;stroke-width:0.4000000000000001;" x1="180" x2="276" y1="448.8844" y2="448.8844"/><ellipse cx="188" cy="460.7328" fill="#84BE84" rx="2.4" ry="2.4" style="stroke:#038048;stroke-width:0.8000000000000002;"/><text fill="#000000" font-family="sans-serif" font-size="11.2" lengthAdjust="spacing" textLength="26.4" x="195.2" y="464.1703">edit()</text><ellipse cx="188" cy="475.6297" fill="#84BE84" rx="2.4" ry="2.4" style="stroke:#038048;stroke-width:0.8000000000000002;"/><text fill="#000000" font-family="sans-serif" font-size="11.2" lengthAdjust="spacing" textLength="56" x="195.2" y="479.0672">add_alert()</text><ellipse cx="188" cy="490.5266" fill="#84BE84" rx="2.4" ry="2.4" style="stroke:#038048;stroke-width:0.8000000000000002;"/><text fill="#000000" font-family="sans-serif" font-size="11.2" lengthAdjust="spacing" textLength="39.2" x="195.2" y="493.9641">delete()</text><ellipse cx="188" cy="505.4234" fill="#84BE84" rx="2.4" ry="2.4" style="stroke:#038048;stroke-width:0.8000000000000002;"/><text fill="#000000" font-family="sans-serif" font-size="11.2" lengthAdjust="spacing" textLength="76.8" x="195.2" y="508.8609">set_repetition()</text><ellipse cx="188" cy="520.3203" fill="#84BE84" rx="2.4" ry="2.4" style="stroke:#038048;stroke-width:0.8000000000000002;"/><text fill="#000000" font-family="sans-serif" font-size="11.2" lengthAdjust="spacing" textLength="36.8" x="195.2" y="523.7578">share()</text></g><!--class Alert--><g id="elem_Alert"><rect codeLine="53" fill="#F1F1F1" height="53.2969" id="Alert" rx="2" ry="2" style="stroke:#181818;stroke-width:0.4000000000000001;" width="70.4" x="192.8" y="592.8"/><ellipse cx="214.52" cy="605.6" fill="#ADD1B2" rx="8.8" ry="8.8" style="stroke:#181818;stroke-width:0.8000000000000002;"/><path d="M216.7325,602.3 Q216.8575,602.125 217.0075,602.0375 Q217.1575,601.95 217.3325,601.95 Q217.6325,601.95 217.82,602.1625 Q218.0075,602.3625 218.0075,602.85 L218.0075,604.0125 Q218.0075,604.5 217.82,604.7125 Q217.6325,604.925 217.3325,604.925 Q217.0575,604.925 216.895,604.7625 Q216.7325,604.6125 216.645,604.2 Q216.6075,603.9125 216.4575,603.7625 Q216.195,603.4625 215.7075,603.2875 Q215.22,603.1125 214.72,603.1125 Q214.1075,603.1125 213.595,603.375 Q213.095,603.6375 212.695,604.2375 Q212.3075,604.8375 212.3075,605.6625 L212.3075,606.5375 Q212.3075,607.525 213.02,608.1875 Q213.7325,608.8375 215.0075,608.8375 Q215.7575,608.8375 216.2825,608.6375 Q216.595,608.5125 216.9325,608.1625 Q217.145,607.95 217.2575,607.8875 Q217.3825,607.825 217.545,607.825 Q217.8075,607.825 218.0075,608.0375 Q218.22,608.2375 218.22,608.5125 Q218.22,608.7875 217.945,609.1125 Q217.545,609.575 216.9075,609.8375 Q216.045,610.2 215.0075,610.2 Q213.795,610.2 212.8325,609.7 Q212.045,609.3 211.495,608.45 Q210.945,607.5875 210.945,606.5625 L210.945,605.6375 Q210.945,604.575 211.4325,603.6625 Q211.9325,602.7375 212.8075,602.25 Q213.6825,601.75 214.67,601.75 Q215.2575,601.75 215.77,601.8875 Q216.295,602.0125 216.7325,602.3 Z " fill="#000000"/><text fill="#000000" font-family="sans-serif" font-size="11.2" lengthAdjust="spacing" textLength="23.2" x="227.88" y="610.2375">Alert</text><line style="stroke:#181818;stroke-width:0.4000000000000001;" x1="193.6" x2="262.4" y1="618.4" y2="618.4"/><rect fill="none" height="4.8" style="stroke:#C82930;stroke-width:0.8000000000000002;" width="4.8" x="199.2" y="627.8484"/><text fill="#000000" font-family="sans-serif" font-size="11.2" lengthAdjust="spacing" textLength="49.6" x="208.8" y="633.6859">offset : int</text><line style="stroke:#181818;stroke-width:0.4000000000000001;" x1="193.6" x2="262.4" y1="639.6969" y2="639.6969"/></g><!--reverse link Interface to Daily_view--><g id="link_Interface_Daily_view"><path codeLine="57" d="M162.1315,125.1323 C138.0275,147.6683 117.688,166.688 95.312,187.608 " fill="none" id="Interface-backto-Daily_view" style="stroke:#181818;stroke-width:0.8000000000000002;"/><polygon fill="#181818" points="169.144,118.576,163.4523,119.5167,162.1315,125.1323,167.8232,124.1916,169.144,118.576" style="stroke:#181818;stroke-width:0.8000000000000002;"/><text fill="#000000" font-family="sans-serif" font-size="10.4" lengthAdjust="spacing" textLength="16.8" x="140.8" y="154.4227">has</text><text fill="#000000" font-family="sans-serif" font-size="10.4" lengthAdjust="spacing" textLength="5.6" x="101.7233" y="178.5563">1</text></g><!--reverse link Interface to Monthly_view--><g id="link_Interface_Monthly_view"><path codeLine="58" d="M205.7966,127.6229 C197.6606,150.5429 191.624,167.552 184.128,188.656 " fill="none" id="Interface-backto-Monthly_view" style="stroke:#181818;stroke-width:0.8000000000000002;"/><polygon fill="#181818" points="209.008,118.576,204.3866,122.029,205.7966,127.6229,210.4179,124.1699,209.008,118.576" style="stroke:#181818;stroke-width:0.8000000000000002;"/><text fill="#000000" font-family="sans-serif" font-size="10.4" lengthAdjust="spacing" textLength="16.8" x="200" y="154.4227">has</text><text fill="#000000" font-family="sans-serif" font-size="10.4" lengthAdjust="spacing" textLength="5.6" x="180.104" y="179.7785">1</text></g><!--reverse link Interface to Yearly_view--><g id="link_Interface_Yearly_view"><path codeLine="59" d="M251.8034,127.6229 C260.9474,153.3829 268.288,174.056 276.168,196.264 " fill="none" id="Interface-backto-Yearly_view" style="stroke:#181818;stroke-width:0.8000000000000002;"/><polygon fill="#181818" points="248.592,118.576,247.182,124.1699,251.8034,127.6229,253.2133,122.029,248.592,118.576" style="stroke:#181818;stroke-width:0.8000000000000002;"/><text fill="#000000" font-family="sans-serif" font-size="10.4" lengthAdjust="spacing" textLength="16.8" x="262.4" y="154.4227">has</text><text fill="#000000" font-family="sans-serif" font-size="10.4" lengthAdjust="spacing" textLength="5.6" x="268.236" y="187.3656">1</text></g><!--reverse link Interface to List_view--><g id="link_Interface_List_view"><path codeLine="60" d="M294.3363,125.1961 C324.4723,153.8921 352.832,180.888 376.632,203.544 " fill="none" id="Interface-backto-List_view" style="stroke:#181818;stroke-width:0.8000000000000002;"/><polygon fill="#181818" points="287.384,118.576,288.6535,124.2035,294.3363,125.1961,293.0668,119.5686,287.384,118.576" style="stroke:#181818;stroke-width:0.8000000000000002;"/><text fill="#000000" font-family="sans-serif" font-size="10.4" lengthAdjust="spacing" textLength="16.8" x="327.2" y="154.4227">has</text><text fill="#000000" font-family="sans-serif" font-size="10.4" lengthAdjust="spacing" textLength="5.6" x="365.0927" y="194.5934">1</text></g><!--reverse link Daily_view to Event--><g id="link_Daily_view_Event"><path codeLine="61" d="M98.5675,286.5285 C124.6155,316.4485 151.92,347.816 179.176,379.12 " fill="none" id="Daily_view-backto-Event" style="stroke:#181818;stroke-width:0.8000000000000002;"/><polygon fill="#181818" points="92.264,279.288,93.0023,285.0094,98.5675,286.5285,97.8293,280.8071,92.264,279.288" style="stroke:#181818;stroke-width:0.8000000000000002;"/><text fill="#000000" font-family="sans-serif" font-size="10.4" lengthAdjust="spacing" textLength="16.8" x="124.8" y="315.2227">has</text><text fill="#000000" font-family="sans-serif" font-size="10.4" lengthAdjust="spacing" textLength="16" x="156.9609" y="369.7812">0..*</text></g><!--reverse link Monthly_view to Event--><g id="link_Monthly_view_Event"><path codeLine="62" d="M183.9885,281.4686 C189.7885,301.7086 194.384,317.784 201.424,342.376 " fill="none" id="Monthly_view-backto-Event" style="stroke:#181818;stroke-width:0.8000000000000002;"/><polygon fill="#181818" points="181.344,272.24,179.5901,277.7358,183.9885,281.4686,185.7425,275.9728,181.344,272.24" style="stroke:#181818;stroke-width:0.8000000000000002;"/><text fill="#000000" font-family="sans-serif" font-size="10.4" lengthAdjust="spacing" textLength="16.8" x="194.4" y="315.2227">has</text><text fill="#000000" font-family="sans-serif" font-size="10.4" lengthAdjust="spacing" textLength="16" x="183.1009" y="333.2536">0..*</text></g><!--reverse link Yearly_view to Event--><g id="link_Yearly_view_Event"><path codeLine="63" d="M275.5163,273.6422 C269.2603,294.9222 263.512,314.472 255.32,342.312 " fill="none" id="Yearly_view-backto-Event" style="stroke:#181818;stroke-width:0.8000000000000002;"/><polygon fill="#181818" points="278.224,264.432,273.8001,268.1346,275.5163,273.6422,279.9402,269.9397,278.224,264.432" style="stroke:#181818;stroke-width:0.8000000000000002;"/><text fill="#000000" font-family="sans-serif" font-size="10.4" lengthAdjust="spacing" textLength="16.8" x="265.6" y="315.2227">has</text><text fill="#000000" font-family="sans-serif" font-size="10.4" lengthAdjust="spacing" textLength="16" x="240.5577" y="333.4992">0..*</text></g><!--reverse link List_view to Event--><g id="link_List_view_Event"><path codeLine="64" d="M375.2574,264.5091 C349.0334,294.9091 311.168,338.808 276.928,378.488 " fill="none" id="List_view-backto-Event" style="stroke:#181818;stroke-width:0.8000000000000002;"/><polygon fill="#181818" points="381.528,257.24,375.9697,258.7844,375.2574,264.5091,380.8158,262.9647,381.528,257.24" style="stroke:#181818;stroke-width:0.8000000000000002;"/><text fill="#000000" font-family="sans-serif" font-size="10.4" lengthAdjust="spacing" textLength="16.8" x="337.6" y="315.2227">has</text><text fill="#000000" font-family="sans-serif" font-size="10.4" lengthAdjust="spacing" textLength="16" x="283.1545" y="369.08">0..*</text></g><!--reverse link Event to Alert--><g id="link_Event_Alert"><path codeLine="65" d="M228,539.264 C228,562.4 228,575.776 228,592.608 " fill="none" id="Event-backto-Alert" style="stroke:#181818;stroke-width:0.8000000000000002;"/><polygon fill="#181818" points="228,529.664,224.8,534.464,228,539.264,231.2,534.464,228,529.664" style="stroke:#181818;stroke-width:0.8000000000000002;"/><text fill="#000000" font-family="sans-serif" font-size="10.4" lengthAdjust="spacing" textLength="16.8" x="228.8" y="565.6227">has</text><text fill="#000000" font-family="sans-serif" font-size="10.4" lengthAdjust="spacing" textLength="16" x="210.475" y="583.8401">0..*</text></g><!--SRC=[bLB1QiCm3BtdAqmlsrhIRjVU2jrXi7t062E8M6qCZXrijQMC_VjKEwcTqGoMYwsdf_TaANSDKUVNgrMdmT2XrSlQjgjQW_UbLB1tq1P52CMchkt1aFWg17-bWHR5MdXookmZr3NM_CPQK7eCBRJTAtF_K7mFoY-6qEsWna5RmfbhjbnwheuAJxsKDTGm_dOvHvapWkF4EnyZN2jFZB_oaT15xH08AuEdl8daDdJHgof3O__yUR7JAqK20SVFHpJqyPd4yvR_9tzRBtlfbDnKwNKOQTYtYG7uOzjSXxcX9t1KKGwXaMC0D3hoZ6mk5tOB2q6fY5SHxY1b5LW3854ZuH1vfCfXXwH8MND56t2OBpF83xtRtOxB-ZQOadwtULcAsTCit_rQDE1lK4ORd2BbQvdYfFb7HkOTA8_BvNpM3pyoHjOJdDnvWfAC9mZndYNZ56Fo1m00]--></g></svg>