<?xml version="1.0" encoding="us-ascii" standalone="no"?><svg xmlns="http://www.w3.org/2000/svg" xmlns:xlink="http://www.w3.org/1999/xlink" contentStyleType="text/css" height="298px" preserveAspectRatio="none" style="width:626px;height:298px;background:#FFFFFF;" version="1.1" viewBox="0 0 626 298" width="626px" zoomAndPan="magnify"><defs/><g><!--cluster Calendar--><g id="cluster_Calendar"><path d="M84.5,6.0137 L148.5,6.0137 A3.75,3.75 0 0 1 151,8.5137 L158,30.6348 L532.5,30.6348 A2.5,2.5 0 0 1 535,33.1348 L535,288.5137 A2.5,2.5 0 0 1 532.5,291.0137 L84.5,291.0137 A2.5,2.5 0 0 1 82,288.5137 L82,8.5137 A2.5,2.5 0 0 1 84.5,6.0137 " fill="none" style="stroke:#000000;stroke-width:1.5;"/><line style="stroke:#000000;stroke-width:1.5;" x1="82" x2="158" y1="30.6348" y2="30.6348"/><text fill="#000000" font-family="sans-serif" font-size="14" font-weight="bold" lengthAdjust="spacing" textLength="63" x="86" y="23.1211">Calendar</text></g><g id="elem_Look"><ellipse cx="179.4996" cy="161.0804" fill="#F1F1F1" rx="71.4996" ry="27.0667" style="stroke:#181818;stroke-width:0.5;"/><text fill="#000000" font-family="sans-serif" font-size="14" font-style="italic" lengthAdjust="spacing" textLength="46" x="150.8255" y="154.3448">&#171;main&#187;</text><text fill="#000000" font-family="sans-serif" font-size="14" lengthAdjust="spacing" textLength="94" x="126.8255" y="172.9659">Look at Events</text></g><g id="elem_Create"><ellipse cx="179.3723" cy="62.1881" fill="#F1F1F1" rx="81.3723" ry="18.6745" style="stroke:#181818;stroke-width:0.5;"/><text fill="#000000" font-family="sans-serif" font-size="14" lengthAdjust="spacing" textLength="112" x="120.3723" y="66.9918">Create new Event</text></g><g id="elem_Edit"><ellipse cx="450.7558" cy="160.9296" fill="#F1F1F1" rx="57.7558" ry="16.4159" style="stroke:#181818;stroke-width:0.5;"/><text fill="#000000" font-family="sans-serif" font-size="14" lengthAdjust="spacing" textLength="64" x="415.7558" y="165.7333">Edit Event</text></g><g id="elem_Delete"><ellipse cx="179.4347" cy="258.0159" fill="#F1F1F1" rx="70.4347" ry="16.5022" style="stroke:#181818;stroke-width:0.5;"/><text fill="#000000" font-family="sans-serif" font-size="14" lengthAdjust="spacing" textLength="81" x="135.9347" y="262.8196">Delete Event</text></g><g id="elem_Add"><ellipse cx="450.7819" cy="73.8894" fill="#F1F1F1" rx="53.2819" ry="16.3758" style="stroke:#181818;stroke-width:0.5;"/><text fill="#000000" font-family="sans-serif" font-size="14" lengthAdjust="spacing" textLength="58" x="418.7819" y="78.6931">Add Alert</text></g><g id="elem_Share"><ellipse cx="451.197" cy="248.003" fill="#F1F1F1" rx="68.197" ry="16.4893" style="stroke:#181818;stroke-width:0.5;"/><text fill="#000000" font-family="sans-serif" font-size="14" lengthAdjust="spacing" textLength="78" x="409.197" y="252.8067">Share Event</text></g><!--entity User--><g id="elem_User"><ellipse cx="20.5" cy="130.0137" fill="#F1F1F1" rx="8" ry="8" style="stroke:#181818;stroke-width:0.5;"/><path d="M20.5,138.0137 L20.5,165.0137 M7.5,146.0137 L33.5,146.0137 M20.5,165.0137 L7.5,180.0137 M20.5,165.0137 L33.5,180.0137 " fill="none" style="stroke:#181818;stroke-width:0.5;"/><text fill="#000000" font-family="sans-serif" font-size="14" lengthAdjust="spacing" textLength="29" x="6" y="196.6211">User</text></g><!--entity User2--><g id="elem_User2"><ellipse cx="600.5" cy="217.0137" fill="#F1F1F1" rx="8" ry="8" style="stroke:#181818;stroke-width:0.5;"/><path d="M600.5,225.0137 L600.5,252.0137 M587.5,233.0137 L613.5,233.0137 M600.5,252.0137 L587.5,267.0137 M600.5,252.0137 L613.5,267.0137 " fill="none" style="stroke:#181818;stroke-width:0.5;"/><text fill="#000000" font-family="sans-serif" font-size="14" lengthAdjust="spacing" textLength="37" x="582" y="283.6211">User2</text></g><!--link User to Look--><g id="link_User_Look"><path d="M35.16,161.0137 C51.57,161.0137 80.34,161.0137 107.83,161.0137 " fill="none" id="User-Look" style="stroke:#181818;stroke-width:1.0;"/></g><!--reverse link Look to Create--><g id="link_Look_Create"><path d="M179.5,127.9637 C179.5,111.0137 179.5,95.6137 179.5,80.5737 " fill="none" id="Look-backto-Create" style="stroke:#181818;stroke-width:1.0;stroke-dasharray:7.0,7.0;"/><polygon fill="#181818" points="179.5,133.9637,183.5,124.9637,179.5,128.9637,175.5,124.9637,179.5,133.9637" style="stroke:#181818;stroke-width:1.0;"/><text fill="#000000" font-family="sans-serif" font-size="13" lengthAdjust="spacing" textLength="60" x="137" y="112.792">&#171;extends&#187;</text></g><!--link Delete to Look--><g id="link_Delete_Look"><path d="M179.5,241.1137 C179.5,226.5737 179.5,211.3037 179.5,194.3437 " fill="none" id="Delete-to-Look" style="stroke:#181818;stroke-width:1.0;stroke-dasharray:7.0,7.0;"/><polygon fill="#181818" points="179.5,188.3437,175.5,197.3437,179.5,193.3437,183.5,197.3437,179.5,188.3437" style="stroke:#181818;stroke-width:1.0;"/><text fill="#000000" font-family="sans-serif" font-size="13" lengthAdjust="spacing" textLength="60" x="137" y="220.292">&#171;extends&#187;</text></g><!--reverse link Look to Edit--><g id="link_Look_Edit"><path d="M257.31,161.0137 C301.44,161.0137 351.49,161.0137 392.8,161.0137 " fill="none" id="Look-backto-Edit" style="stroke:#181818;stroke-width:1.0;stroke-dasharray:7.0,7.0;"/><polygon fill="#181818" points="251.31,161.0137,260.31,165.0137,256.31,161.0137,260.31,157.0137,251.31,161.0137" style="stroke:#181818;stroke-width:1.0;"/><text fill="#000000" font-family="sans-serif" font-size="13" lengthAdjust="spacing" textLength="60" x="292" y="157.042">&#171;extends&#187;</text></g><!--reverse link Edit to Add--><g id="link_Edit_Add"><path d="M451,138.2437 C451,122.8337 451,106.1237 451,90.7337 " fill="none" id="Edit-backto-Add" style="stroke:#181818;stroke-width:1.0;stroke-dasharray:7.0,7.0;"/><polygon fill="#181818" points="451,144.2437,455,135.2437,451,139.2437,447,135.2437,451,144.2437" style="stroke:#181818;stroke-width:1.0;"/><text fill="#000000" font-family="sans-serif" font-size="13" lengthAdjust="spacing" textLength="60" x="408.5" y="123.042">&#171;extends&#187;</text></g><!--link Share to Edit--><g id="link_Share_Edit"><path d="M451,231.2437 C451,215.8337 451,199.1237 451,183.7337 " fill="none" id="Share-to-Edit" style="stroke:#181818;stroke-width:1.0;stroke-dasharray:7.0,7.0;"/><polygon fill="#181818" points="451,177.7337,447,186.7337,451,182.7337,455,186.7337,451,177.7337" style="stroke:#181818;stroke-width:1.0;"/><text fill="#000000" font-family="sans-serif" font-size="13" lengthAdjust="spacing" textLength="60" x="408.5" y="210.042">&#171;extends&#187;</text></g><!--link Share to User2--><g id="link_Share_User2"><path d="M519.28,248.0137 C542.37,248.0137 560.32,248.0137 575.97,248.0137 " fill="none" id="Share-to-User2" style="stroke:#181818;stroke-width:1.0;"/><polygon fill="#181818" points="581.97,248.0137,572.97,244.0137,576.97,248.0137,572.97,252.0137,581.97,248.0137" style="stroke:#181818;stroke-width:1.0;"/></g><!--SRC=[XP51QyGW48Nlyolcrdf80Zs69R1izxQtqXymn6aYQpJef5ie_UyrqQNRmb8FYkzzudlwC8hCiMsQsPAJPR9rxwTcYLprb2PjQ0Wq0O3bDq7n6Cmm2ceJk1VZ7RIlaKERbwSMPkhFD30UoBBJ5F0JC8t7a_Td9C7ZEpk92YbcJU5kDv5nNPUvGs0IHiUNZ6OogoeZHstarbptnNfco-dqZPcLOk-rnhtbKBoqBSRBIE7NiKrGy0Mmzi9A-ukhIcAuni5wVPIwAtgRgl27fDenjRdUZFVyBJRMotmFMEFzNB7XVuYS4kljJ_w1SeN4R1-bu1i0]--></g></svg>