<?xml version="1.0" encoding="us-ascii" standalone="no"?><svg xmlns="http://www.w3.org/2000/svg" xmlns:xlink="http://www.w3.org/1999/xlink" contentStyleType="text/css" height="1117px" preserveAspectRatio="none" style="width:513px;height:1117px;background:#FFFFFF;" version="1.1" viewBox="0 0 513 1117" width="513px" zoomAndPan="magnify"><defs/><g><rect fill="#FFFFFF" height="931.4883" style="stroke:#181818;stroke-width:1.0;" width="10" x="32.5" y="93.6211"/><rect fill="#FFFFFF" height="862.9063" style="stroke:#181818;stroke-width:1.0;" width="10" x="235.5" y="162.2031"/><rect fill="#FFFFFF" height="31.291" style="stroke:#181818;stroke-width:1.0;" width="10" x="428.5" y="381.5801"/><rect fill="#FFFFFF" height="75.582" style="stroke:#181818;stroke-width:1.0;" width="10" x="428.5" y="569.3262"/><rect fill="#FFFFFF" height="31.291" style="stroke:#181818;stroke-width:1.0;" width="10" x="428.5" y="801.3633"/><rect fill="none" height="142.7949" style="stroke:#000000;stroke-width:1.5;" width="275" x="10" y="208.4941"/><line style="stroke:#181818;stroke-width:0.5;stroke-dasharray:5.0,5.0;" x1="37" x2="37" y1="83.6211" y2="1034.1094"/><line style="stroke:#181818;stroke-width:0.5;stroke-dasharray:5.0,5.0;" x1="240" x2="240" y1="83.6211" y2="1034.1094"/><line style="stroke:#181818;stroke-width:0.5;stroke-dasharray:5.0,5.0;" x1="433" x2="433" y1="83.6211" y2="1034.1094"/><text fill="#000000" font-family="sans-serif" font-size="14" lengthAdjust="spacing" textLength="29" x="20" y="80.1074">User</text><ellipse cx="37.5" cy="13.5" fill="#E2E2F0" rx="8" ry="8" style="stroke:#181818;stroke-width:0.5;"/><path d="M37.5,21.5 L37.5,48.5 M24.5,29.5 L50.5,29.5 M37.5,48.5 L24.5,63.5 M37.5,48.5 L50.5,63.5 " fill="none" style="stroke:#181818;stroke-width:0.5;"/><text fill="#000000" font-family="sans-serif" font-size="14" lengthAdjust="spacing" textLength="29" x="20" y="1048.2168">User</text><ellipse cx="37.5" cy="1060.2305" fill="#E2E2F0" rx="8" ry="8" style="stroke:#181818;stroke-width:0.5;"/><path d="M37.5,1068.2305 L37.5,1095.2305 M24.5,1076.2305 L50.5,1076.2305 M37.5,1095.2305 L24.5,1110.2305 M37.5,1095.2305 L50.5,1110.2305 " fill="none" style="stroke:#181818;stroke-width:0.5;"/><rect fill="#E2E2F0" height="32.6211" rx="2.5" ry="2.5" style="stroke:#181818;stroke-width:0.5;" width="69" x="206" y="50"/><text fill="#000000" font-family="sans-serif" font-size="14" lengthAdjust="spacing" textLength="55" x="213" y="72.1074">Interface</text><rect fill="#E2E2F0" height="32.6211" rx="2.5" ry="2.5" style="stroke:#181818;stroke-width:0.5;" width="69" x="206" y="1033.1094"/><text fill="#000000" font-family="sans-serif" font-size="14" lengthAdjust="spacing" textLength="55" x="213" y="1055.2168">Interface</text><rect fill="#E2E2F0" height="32.6211" rx="2.5" ry="2.5" style="stroke:#181818;stroke-width:0.5;" width="75" x="396" y="50"/><text fill="#000000" font-family="sans-serif" font-size="14" lengthAdjust="spacing" textLength="61" x="403" y="72.1074">Database</text><rect fill="#E2E2F0" height="32.6211" rx="2.5" ry="2.5" style="stroke:#181818;stroke-width:0.5;" width="75" x="396" y="1033.1094"/><text fill="#000000" font-family="sans-serif" font-size="14" lengthAdjust="spacing" textLength="61" x="403" y="1055.2168">Database</text><rect fill="#FFFFFF" height="931.4883" style="stroke:#181818;stroke-width:1.0;" width="10" x="32.5" y="93.6211"/><rect fill="#FFFFFF" height="862.9063" style="stroke:#181818;stroke-width:1.0;" width="10" x="235.5" y="162.2031"/><rect fill="#FFFFFF" height="31.291" style="stroke:#181818;stroke-width:1.0;" width="10" x="428.5" y="381.5801"/><rect fill="#FFFFFF" height="75.582" style="stroke:#181818;stroke-width:1.0;" width="10" x="428.5" y="569.3262"/><rect fill="#FFFFFF" height="31.291" style="stroke:#181818;stroke-width:1.0;" width="10" x="428.5" y="801.3633"/><rect fill="#EEEEEE" height="3" style="stroke:#EEEEEE;stroke-width:1.0;" width="506.5" x="0" y="115.2666"/><line style="stroke:#000000;stroke-width:1.0;" x1="0" x2="506.5" y1="115.2666" y2="115.2666"/><line style="stroke:#000000;stroke-width:1.0;" x1="0" x2="506.5" y1="118.2666" y2="118.2666"/><rect fill="#EEEEEE" height="25.291" style="stroke:#000000;stroke-width:2.0;" width="81" x="212.75" y="103.6211"/><text fill="#000000" font-family="sans-serif" font-size="13" font-weight="bold" lengthAdjust="spacing" textLength="63" x="218.75" y="121.6494">Activation</text><polygon fill="#181818" points="223.5,158.2031,233.5,162.2031,223.5,166.2031,227.5,162.2031" style="stroke:#181818;stroke-width:1.0;"/><line style="stroke:#181818;stroke-width:1.0;" x1="42.5" x2="229.5" y1="162.2031" y2="162.2031"/><text fill="#000000" font-family="sans-serif" font-size="13" font-weight="bold" lengthAdjust="spacing" textLength="7" x="49.5" y="156.9404">1</text><text fill="#000000" font-family="sans-serif" font-size="13" lengthAdjust="spacing" textLength="43" x="60.5" y="156.9404">Turn on</text><polygon fill="#181818" points="53.5,189.4941,43.5,193.4941,53.5,197.4941,49.5,193.4941" style="stroke:#181818;stroke-width:1.0;"/><line style="stroke:#181818;stroke-width:1.0;" x1="47.5" x2="234.5" y1="193.4941" y2="193.4941"/><text fill="#000000" font-family="sans-serif" font-size="13" font-weight="bold" lengthAdjust="spacing" textLength="7" x="59.5" y="188.2314">2</text><text fill="#000000" font-family="sans-serif" font-size="13" lengthAdjust="spacing" textLength="90" x="70.5" y="188.2314">Requests Login</text><path d="M10,208.4941 L71,208.4941 L71,217.7852 L61,227.7852 L10,227.7852 L10,208.4941 " fill="#EEEEEE" style="stroke:#000000;stroke-width:1.5;"/><rect fill="none" height="142.7949" style="stroke:#000000;stroke-width:1.5;" width="275" x="10" y="208.4941"/><text fill="#000000" font-family="sans-serif" font-size="13" font-weight="bold" lengthAdjust="spacing" textLength="16" x="25" y="223.5225">alt</text><text fill="#000000" font-family="sans-serif" font-size="11" font-weight="bold" lengthAdjust="spacing" textLength="105" x="86" y="222.3643">[User has Account]</text><polygon fill="#181818" points="223.5,247.0762,233.5,251.0762,223.5,255.0762,227.5,251.0762" style="stroke:#181818;stroke-width:1.0;"/><line style="stroke:#181818;stroke-width:1.0;" x1="42.5" x2="229.5" y1="251.0762" y2="251.0762"/><text fill="#000000" font-family="sans-serif" font-size="13" font-weight="bold" lengthAdjust="spacing" textLength="7" x="49.5" y="245.8135">3</text><text fill="#000000" font-family="sans-serif" font-size="13" lengthAdjust="spacing" textLength="135" x="60.5" y="245.8135">Sends login Information</text><line style="stroke:#000000;stroke-width:1.0;stroke-dasharray:2.0,2.0;" x1="10" x2="285" y1="260.0762" y2="260.0762"/><text fill="#000000" font-family="sans-serif" font-size="11" font-weight="bold" lengthAdjust="spacing" textLength="161" x="15" y="271.9463">[User does not have account]</text><line style="stroke:#181818;stroke-width:1.0;" x1="42.5" x2="84.5" y1="298.998" y2="298.998"/><line style="stroke:#181818;stroke-width:1.0;" x1="84.5" x2="84.5" y1="298.998" y2="311.998"/><line style="stroke:#181818;stroke-width:1.0;" x1="43.5" x2="84.5" y1="311.998" y2="311.998"/><polygon fill="#181818" points="53.5,307.998,43.5,311.998,53.5,315.998,49.5,311.998" style="stroke:#181818;stroke-width:1.0;"/><text fill="#000000" font-family="sans-serif" font-size="13" font-weight="bold" lengthAdjust="spacing" textLength="7" x="49.5" y="293.7354">4</text><text fill="#000000" font-family="sans-serif" font-size="13" lengthAdjust="spacing" textLength="124" x="60.5" y="293.7354">Creates new Account</text><polygon fill="#181818" points="223.5,339.2891,233.5,343.2891,223.5,347.2891,227.5,343.2891" style="stroke:#181818;stroke-width:1.0;"/><line style="stroke:#181818;stroke-width:1.0;" x1="42.5" x2="229.5" y1="343.2891" y2="343.2891"/><text fill="#000000" font-family="sans-serif" font-size="13" font-weight="bold" lengthAdjust="spacing" textLength="7" x="49.5" y="338.0264">5</text><text fill="#000000" font-family="sans-serif" font-size="13" lengthAdjust="spacing" textLength="135" x="60.5" y="338.0264">Sends login Information</text><polygon fill="#181818" points="416.5,377.5801,426.5,381.5801,416.5,385.5801,420.5,381.5801" style="stroke:#181818;stroke-width:1.0;"/><line style="stroke:#181818;stroke-width:1.0;" x1="245.5" x2="422.5" y1="381.5801" y2="381.5801"/><text fill="#000000" font-family="sans-serif" font-size="13" font-weight="bold" lengthAdjust="spacing" textLength="7" x="252.5" y="376.3174">6</text><text fill="#000000" font-family="sans-serif" font-size="13" lengthAdjust="spacing" textLength="151" x="263.5" y="376.3174">Request Event Information</text><polygon fill="#181818" points="256.5,408.8711,246.5,412.8711,256.5,416.8711,252.5,412.8711" style="stroke:#181818;stroke-width:1.0;"/><line style="stroke:#181818;stroke-width:1.0;stroke-dasharray:2.0,2.0;" x1="250.5" x2="432.5" y1="412.8711" y2="412.8711"/><text fill="#000000" font-family="sans-serif" font-size="13" font-weight="bold" lengthAdjust="spacing" textLength="7" x="262.5" y="407.6084">7</text><text fill="#000000" font-family="sans-serif" font-size="13" lengthAdjust="spacing" textLength="148" x="273.5" y="407.6084">Returns Event Information</text><polygon fill="#181818" points="53.5,440.1621,43.5,444.1621,53.5,448.1621,49.5,444.1621" style="stroke:#181818;stroke-width:1.0;"/><line style="stroke:#181818;stroke-width:1.0;" x1="47.5" x2="234.5" y1="444.1621" y2="444.1621"/><text fill="#000000" font-family="sans-serif" font-size="13" font-weight="bold" lengthAdjust="spacing" textLength="7" x="59.5" y="438.8994">8</text><text fill="#000000" font-family="sans-serif" font-size="13" lengthAdjust="spacing" textLength="117" x="70.5" y="438.8994">Displays Information</text><rect fill="#EEEEEE" height="3" style="stroke:#EEEEEE;stroke-width:1.0;" width="506.5" x="0" y="473.8076"/><line style="stroke:#000000;stroke-width:1.0;" x1="0" x2="506.5" y1="473.8076" y2="473.8076"/><line style="stroke:#000000;stroke-width:1.0;" x1="0" x2="506.5" y1="476.8076" y2="476.8076"/><rect fill="#EEEEEE" height="25.291" style="stroke:#000000;stroke-width:2.0;" width="130" x="188.25" y="462.1621"/><text fill="#000000" font-family="sans-serif" font-size="13" font-weight="bold" lengthAdjust="spacing" textLength="112" x="194.25" y="480.1904">Create new event</text><polygon fill="#181818" points="223.5,534.0352,233.5,538.0352,223.5,542.0352,227.5,538.0352" style="stroke:#181818;stroke-width:1.0;"/><line style="stroke:#181818;stroke-width:1.0;" x1="42.5" x2="229.5" y1="538.0352" y2="538.0352"/><text fill="#000000" font-family="sans-serif" font-size="13" font-weight="bold" lengthAdjust="spacing" textLength="7" x="49.5" y="524.127">9</text><text fill="#000000" font-family="sans-serif" font-size="13" lengthAdjust="spacing" textLength="107" x="60.5" y="515.4814">Calls create_new()</text><text fill="#000000" font-family="sans-serif" font-size="13" lengthAdjust="spacing" textLength="154" x="64.5" y="532.7725">and Sends new Event data</text><polygon fill="#181818" points="416.5,565.3262,426.5,569.3262,416.5,573.3262,420.5,569.3262" style="stroke:#181818;stroke-width:1.0;"/><line style="stroke:#181818;stroke-width:1.0;" x1="245.5" x2="422.5" y1="569.3262" y2="569.3262"/><text fill="#000000" font-family="sans-serif" font-size="13" font-weight="bold" lengthAdjust="spacing" textLength="14" x="252.5" y="564.0635">10</text><text fill="#000000" font-family="sans-serif" font-size="13" lengthAdjust="spacing" textLength="129" x="270.5" y="564.0635">Sends new Event data</text><line style="stroke:#181818;stroke-width:1.0;" x1="438.5" x2="480.5" y1="600.6172" y2="600.6172"/><line style="stroke:#181818;stroke-width:1.0;" x1="480.5" x2="480.5" y1="600.6172" y2="613.6172"/><line style="stroke:#181818;stroke-width:1.0;" x1="439.5" x2="480.5" y1="613.6172" y2="613.6172"/><polygon fill="#181818" points="449.5,609.6172,439.5,613.6172,449.5,617.6172,445.5,613.6172" style="stroke:#181818;stroke-width:1.0;"/><text fill="#000000" font-family="sans-serif" font-size="13" font-weight="bold" lengthAdjust="spacing" textLength="14" x="445.5" y="595.3545">11</text><text fill="#000000" font-family="sans-serif" font-size="13" lengthAdjust="spacing" textLength="31" x="463.5" y="595.3545">Sorts</text><polygon fill="#181818" points="256.5,640.9082,246.5,644.9082,256.5,648.9082,252.5,644.9082" style="stroke:#181818;stroke-width:1.0;"/><line style="stroke:#181818;stroke-width:1.0;stroke-dasharray:2.0,2.0;" x1="250.5" x2="432.5" y1="644.9082" y2="644.9082"/><text fill="#000000" font-family="sans-serif" font-size="13" font-weight="bold" lengthAdjust="spacing" textLength="14" x="262.5" y="639.6455">12</text><text fill="#000000" font-family="sans-serif" font-size="13" lengthAdjust="spacing" textLength="104" x="280.5" y="639.6455">Confirms success</text><polygon fill="#181818" points="53.5,689.4902,43.5,693.4902,53.5,697.4902,49.5,693.4902" style="stroke:#181818;stroke-width:1.0;"/><line style="stroke:#181818;stroke-width:1.0;stroke-dasharray:2.0,2.0;" x1="47.5" x2="234.5" y1="693.4902" y2="693.4902"/><text fill="#000000" font-family="sans-serif" font-size="13" font-weight="bold" lengthAdjust="spacing" textLength="14" x="59.5" y="679.582">13</text><text fill="#000000" font-family="sans-serif" font-size="13" lengthAdjust="spacing" textLength="100" x="77.5" y="670.9365">Displays updated</text><text fill="#000000" font-family="sans-serif" font-size="13" lengthAdjust="spacing" textLength="99" x="81.5" y="688.2275">Event Information</text><rect fill="#EEEEEE" height="3" style="stroke:#EEEEEE;stroke-width:1.0;" width="506.5" x="0" y="723.1357"/><line style="stroke:#000000;stroke-width:1.0;" x1="0" x2="506.5" y1="723.1357" y2="723.1357"/><line style="stroke:#000000;stroke-width:1.0;" x1="0" x2="506.5" y1="726.1357" y2="726.1357"/><rect fill="#EEEEEE" height="25.291" style="stroke:#000000;stroke-width:2.0;" width="116" x="195.25" y="711.4902"/><text fill="#000000" font-family="sans-serif" font-size="13" font-weight="bold" lengthAdjust="spacing" textLength="98" x="201.25" y="729.5186">Add new Alarm</text><polygon fill="#181818" points="223.5,766.0723,233.5,770.0723,223.5,774.0723,227.5,770.0723" style="stroke:#181818;stroke-width:1.0;"/><line style="stroke:#181818;stroke-width:1.0;" x1="42.5" x2="229.5" y1="770.0723" y2="770.0723"/><text fill="#000000" font-family="sans-serif" font-size="13" font-weight="bold" lengthAdjust="spacing" textLength="14" x="49.5" y="764.8096">14</text><text fill="#000000" font-family="sans-serif" font-size="13" lengthAdjust="spacing" textLength="110" x="67.5" y="764.8096">Creates new Alarm</text><polygon fill="#181818" points="416.5,797.3633,426.5,801.3633,416.5,805.3633,420.5,801.3633" style="stroke:#181818;stroke-width:1.0;"/><line style="stroke:#181818;stroke-width:1.0;" x1="245.5" x2="422.5" y1="801.3633" y2="801.3633"/><text fill="#000000" font-family="sans-serif" font-size="13" font-weight="bold" lengthAdjust="spacing" textLength="14" x="252.5" y="796.1006">15</text><text fill="#000000" font-family="sans-serif" font-size="13" lengthAdjust="spacing" textLength="140" x="270.5" y="796.1006">Appends Alarm to Event</text><polygon fill="#181818" points="256.5,828.6543,246.5,832.6543,256.5,836.6543,252.5,832.6543" style="stroke:#181818;stroke-width:1.0;"/><line style="stroke:#181818;stroke-width:1.0;stroke-dasharray:2.0,2.0;" x1="250.5" x2="432.5" y1="832.6543" y2="832.6543"/><text fill="#000000" font-family="sans-serif" font-size="13" font-weight="bold" lengthAdjust="spacing" textLength="14" x="262.5" y="827.3916">16</text><text fill="#000000" font-family="sans-serif" font-size="13" lengthAdjust="spacing" textLength="104" x="280.5" y="827.3916">Confirms success</text><polygon fill="#181818" points="53.5,859.9453,43.5,863.9453,53.5,867.9453,49.5,863.9453" style="stroke:#181818;stroke-width:1.0;"/><line style="stroke:#181818;stroke-width:1.0;stroke-dasharray:2.0,2.0;" x1="47.5" x2="234.5" y1="863.9453" y2="863.9453"/><text fill="#000000" font-family="sans-serif" font-size="13" font-weight="bold" lengthAdjust="spacing" textLength="14" x="59.5" y="858.6826">17</text><text fill="#000000" font-family="sans-serif" font-size="13" lengthAdjust="spacing" textLength="129" x="77.5" y="858.6826">Displays updated data</text><rect fill="#EEEEEE" height="3" style="stroke:#EEEEEE;stroke-width:1.0;" width="506.5" x="0" y="893.5908"/><line style="stroke:#000000;stroke-width:1.0;" x1="0" x2="506.5" y1="893.5908" y2="893.5908"/><line style="stroke:#000000;stroke-width:1.0;" x1="0" x2="506.5" y1="896.5908" y2="896.5908"/><rect fill="#EEEEEE" height="25.291" style="stroke:#000000;stroke-width:2.0;" width="228" x="139.25" y="881.9453"/><text fill="#000000" font-family="sans-serif" font-size="13" font-weight="bold" lengthAdjust="spacing" textLength="210" x="145.25" y="899.9736">Alarm activates while app closed</text><polygon fill="#181818" points="223.5,936.5273,233.5,940.5273,223.5,944.5273,227.5,940.5273" style="stroke:#181818;stroke-width:1.0;"/><line style="stroke:#181818;stroke-width:1.0;" x1="42.5" x2="229.5" y1="940.5273" y2="940.5273"/><text fill="#000000" font-family="sans-serif" font-size="13" font-weight="bold" lengthAdjust="spacing" textLength="14" x="49.5" y="935.2646">18</text><text fill="#000000" font-family="sans-serif" font-size="13" lengthAdjust="spacing" textLength="67" x="67.5" y="935.2646">Closes App</text><line style="stroke:#181818;stroke-width:1.0;" x1="245.5" x2="287.5" y1="971.8184" y2="971.8184"/><line style="stroke:#181818;stroke-width:1.0;" x1="287.5" x2="287.5" y1="971.8184" y2="984.8184"/><line style="stroke:#181818;stroke-width:1.0;" x1="246.5" x2="287.5" y1="984.8184" y2="984.8184"/><polygon fill="#181818" points="256.5,980.8184,246.5,984.8184,256.5,988.8184,252.5,984.8184" style="stroke:#181818;stroke-width:1.0;"/><text fill="#000000" font-family="sans-serif" font-size="13" font-weight="bold" lengthAdjust="spacing" textLength="14" x="252.5" y="966.5557">19</text><text fill="#000000" font-family="sans-serif" font-size="13" lengthAdjust="spacing" textLength="90" x="270.5" y="966.5557">Waits for Alarm</text><polygon fill="#181818" points="53.5,1012.1094,43.5,1016.1094,53.5,1020.1094,49.5,1016.1094" style="stroke:#181818;stroke-width:1.0;"/><line style="stroke:#181818;stroke-width:1.0;" x1="47.5" x2="234.5" y1="1016.1094" y2="1016.1094"/><text fill="#000000" font-family="sans-serif" font-size="13" font-weight="bold" lengthAdjust="spacing" textLength="14" x="59.5" y="1010.8467">20</text><text fill="#000000" font-family="sans-serif" font-size="13" lengthAdjust="spacing" textLength="105" x="77.5" y="1010.8467">Sends Notification</text><!--SRC=[hPF1Rjim38RlUWhUkY7mSW-G0a6wmu1XXxN3BWCAHc8Q0RBaYNI2ldqfgLqInEbXg0y6BFua_u-KRtOY0o_cyo5WbB4FNspgvqn_HugMEkVnAMDl38wIujXlA1kpNCBAYj-Z-1HXkJHe9MNunHh45g3sLLxGtSAtA9ItQ6asMy33c2EaQFuT5aLHBk1dwSl2y3qz-MWmI0t03bbRsZH6CQ3FHTq5t5Dq3A7awV4svRxQCnIucG6NY24cqMfx0fmerqoiCoc0IkdmtqsZEyUxGy4DSkL_XOIlUufoblQcWkwqJTUL7D6fyKJEr1ZlFEiwd_bSg6jhQ9MCQYLTdfdWMcC83BQg7rNzwJFyYO3HlHAN0isAKylNKIVLHygZMAKf2xypWNMAMvzx1Xwj9URJffVWuw2jo1NN4oCh5zYvjk20kRywXjERK8JNILV3K5bRFKcjxOVpr05M_xNFsz_6SDZve9Tw6C26nAgyXbIYNEoUivn8VgFNFr37DSNSVBMz_aZYjzwseRu0]--></g></svg>