<?xml version="1.0" encoding="us-ascii" standalone="no"?><svg xmlns="http://www.w3.org/2000/svg" xmlns:xlink="http://www.w3.org/1999/xlink" contentStyleType="text/css" height="516px" preserveAspectRatio="none" style="width:473px;height:516px;background:#FFFFFF;" version="1.1" viewBox="0 0 473 516" width="473.6px" zoomAndPan="magnify"><defs/><g><ellipse cx="228.2" cy="16" fill="#222222" rx="8" ry="8" style="stroke:#222222;stroke-width:0.8000000000000002;"/><rect fill="#F1F1F1" height="28.7688" rx="10" ry="10" style="stroke:#181818;stroke-width:0.4000000000000001;" width="88.8" x="183.8" y="40"/><text fill="#000000" font-family="sans-serif" font-size="9.6" lengthAdjust="spacing" textLength="72.8" x="191.8" y="58.3594">Opens Calendar</text><rect fill="#F1F1F1" height="28.7688" rx="10" ry="10" style="stroke:#181818;stroke-width:0.4000000000000001;" width="132.8" x="161.8" y="124.2211"/><text fill="#000000" font-family="sans-serif" font-size="9.6" lengthAdjust="spacing" textLength="116.8" x="169.8" y="142.5805">User Creates new Account</text><polygon fill="#F1F1F1" points="190.6,84.7688,265.8,84.7688,275.4,94.3688,265.8,103.9688,190.6,103.9688,181,94.3688,190.6,84.7688" style="stroke:#181818;stroke-width:0.4000000000000001;"/><text fill="#000000" font-family="sans-serif" font-size="8.8" lengthAdjust="spacing" textLength="9.6" x="231.4" y="113.4648">no</text><text fill="#000000" font-family="sans-serif" font-size="8.8" lengthAdjust="spacing" textLength="75.2" x="190.6" y="98.0125">User has Account?</text><text fill="#000000" font-family="sans-serif" font-size="8.8" lengthAdjust="spacing" textLength="14.4" x="275.4" y="92.1602">yes</text><polygon fill="#F1F1F1" points="228.2,168.9898,237.8,178.5898,228.2,188.1898,218.6,178.5898,228.2,168.9898" style="stroke:#181818;stroke-width:0.4000000000000001;"/><polygon fill="#F1F1F1" points="188.2,248.9586,268.2,248.9586,277.8,258.5586,268.2,268.1586,188.2,268.1586,178.6,258.5586,188.2,248.9586" style="stroke:#181818;stroke-width:0.4000000000000001;"/><text fill="#000000" font-family="sans-serif" font-size="8.8" lengthAdjust="spacing" textLength="80" x="188.2" y="262.2023">User chooses action</text><rect fill="#F1F1F1" height="41.5375" rx="10" ry="10" style="stroke:#181818;stroke-width:0.4000000000000001;" width="100" x="8.8" y="299.568"/><text fill="#000000" font-family="sans-serif" font-size="9.6" lengthAdjust="spacing" textLength="56.8" x="16.8" y="317.9273">New Event is</text><text fill="#000000" font-family="sans-serif" font-size="9.6" lengthAdjust="spacing" textLength="84" x="16.8" y="330.6961">added to Database</text><rect fill="#F1F1F1" height="41.5375" rx="10" ry="10" style="stroke:#181818;stroke-width:0.4000000000000001;" width="96" x="116.8" y="299.568"/><text fill="#000000" font-family="sans-serif" font-size="9.6" lengthAdjust="spacing" textLength="80" x="124.8" y="317.9273">Event in Database</text><text fill="#000000" font-family="sans-serif" font-size="9.6" lengthAdjust="spacing" textLength="48.8" x="124.8" y="330.6961">is modified</text><rect fill="#F1F1F1" height="41.5375" rx="10" ry="10" style="stroke:#181818;stroke-width:0.4000000000000001;" width="87.2" x="228.8" y="299.568"/><text fill="#000000" font-family="sans-serif" font-size="9.6" lengthAdjust="spacing" textLength="71.2" x="236.8" y="317.9273">Event is Deleted</text><text fill="#000000" font-family="sans-serif" font-size="9.6" lengthAdjust="spacing" textLength="65.6" x="236.8" y="330.6961">from Database</text><rect fill="#F1F1F1" height="28.7688" rx="10" ry="10" style="stroke:#181818;stroke-width:0.4000000000000001;" width="119.2" x="324" y="299.568"/><text fill="#000000" font-family="sans-serif" font-size="9.6" lengthAdjust="spacing" textLength="103.2" x="332" y="317.9273">Alarm is added to Event</text><polygon fill="#F1F1F1" points="228.2,373.1055,228.2,373.1055,237.8,382.7055,228.2,392.3055,228.2,392.3055,218.6,382.7055,228.2,373.1055" style="stroke:#181818;stroke-width:0.4000000000000001;"/><polygon fill="#F1F1F1" points="200.2,408.3055,256.2,408.3055,265.8,417.9055,256.2,427.5055,200.2,427.5055,190.6,417.9055,200.2,408.3055" style="stroke:#181818;stroke-width:0.4000000000000001;"/><text fill="#000000" font-family="sans-serif" font-size="8.8" lengthAdjust="spacing" textLength="16" x="231.4" y="437.0016">Yes</text><text fill="#000000" font-family="sans-serif" font-size="8.8" lengthAdjust="spacing" textLength="56" x="200.2" y="421.5492">More Actions?</text><text fill="#000000" font-family="sans-serif" font-size="8.8" lengthAdjust="spacing" textLength="10.4" x="265.8" y="415.6969">No</text><ellipse cx="293.8" cy="417.9055" fill="none" rx="8.8" ry="8.8" style="stroke:#222222;stroke-width:0.8000000000000002;"/><ellipse cx="293.8" cy="417.9055" fill="#222222" rx="4.8" ry="4.8" style="stroke:#222222;stroke-width:0.8000000000000002;"/><rect fill="#F1F1F1" height="28.7688" rx="10" ry="10" style="stroke:#181818;stroke-width:0.4000000000000001;" width="69.6" x="193.4" y="204.1898"/><text fill="#000000" font-family="sans-serif" font-size="9.6" lengthAdjust="spacing" textLength="53.6" x="201.4" y="222.5492">User logs in</text><line style="stroke:#181818;stroke-width:0.8000000000000002;" x1="228.2" x2="228.2" y1="24" y2="40"/><polygon fill="#181818" points="225,32,228.2,40,231.4,32,228.2,35.2" style="stroke:#181818;stroke-width:0.8000000000000002;"/><line style="stroke:#181818;stroke-width:0.8000000000000002;" x1="228.2" x2="228.2" y1="103.9688" y2="124.2211"/><polygon fill="#181818" points="225,116.2211,228.2,124.2211,231.4,116.2211,228.2,119.4211" style="stroke:#181818;stroke-width:0.8000000000000002;"/><line style="stroke:#181818;stroke-width:0.8000000000000002;" x1="275.4" x2="302.6" y1="94.3688" y2="94.3688"/><polygon fill="#181818" points="299.4,130.6055,302.6,138.6055,305.8,130.6055,302.6,133.8055" style="stroke:#181818;stroke-width:0.8000000000000002;"/><line style="stroke:#181818;stroke-width:0.8000000000000002;" x1="302.6" x2="302.6" y1="94.3688" y2="178.5898"/><line style="stroke:#181818;stroke-width:0.8000000000000002;" x1="302.6" x2="237.8" y1="178.5898" y2="178.5898"/><polygon fill="#181818" points="245.8,175.3898,237.8,178.5898,245.8,181.7898,242.6,178.5898" style="stroke:#181818;stroke-width:0.8000000000000002;"/><line style="stroke:#181818;stroke-width:0.8000000000000002;" x1="228.2" x2="228.2" y1="152.9898" y2="168.9898"/><polygon fill="#181818" points="225,160.9898,228.2,168.9898,231.4,160.9898,228.2,164.1898" style="stroke:#181818;stroke-width:0.8000000000000002;"/><line style="stroke:#181818;stroke-width:0.8000000000000002;" x1="228.2" x2="228.2" y1="68.7688" y2="84.7688"/><polygon fill="#181818" points="225,76.7688,228.2,84.7688,231.4,76.7688,228.2,79.9688" style="stroke:#181818;stroke-width:0.8000000000000002;"/><line style="stroke:#181818;stroke-width:0.8000000000000002;" x1="178.6" x2="58.8" y1="258.5586" y2="258.5586"/><line style="stroke:#181818;stroke-width:0.8000000000000002;" x1="58.8" x2="58.8" y1="258.5586" y2="299.568"/><polygon fill="#181818" points="55.6,291.568,58.8,299.568,62,291.568,58.8,294.768" style="stroke:#181818;stroke-width:0.8000000000000002;"/><text fill="#000000" font-family="sans-serif" font-size="8.8" lengthAdjust="spacing" textLength="40" x="58.8" y="282.707">Add Event</text><line style="stroke:#181818;stroke-width:0.8000000000000002;" x1="277.8" x2="383.6" y1="258.5586" y2="258.5586"/><line style="stroke:#181818;stroke-width:0.8000000000000002;" x1="383.6" x2="383.6" y1="258.5586" y2="299.568"/><polygon fill="#181818" points="380.4,291.568,383.6,299.568,386.8,291.568,383.6,294.768" style="stroke:#181818;stroke-width:0.8000000000000002;"/><text fill="#000000" font-family="sans-serif" font-size="8.8" lengthAdjust="spacing" textLength="40.8" x="383.6" y="282.707">Add Alarm</text><line style="stroke:#181818;stroke-width:0.8000000000000002;" x1="164.8" x2="164.8" y1="258.5586" y2="299.568"/><polygon fill="#181818" points="161.6,291.568,164.8,299.568,168,291.568,164.8,294.768" style="stroke:#181818;stroke-width:0.8000000000000002;"/><text fill="#000000" font-family="sans-serif" font-size="8.8" lengthAdjust="spacing" textLength="37.6" x="164.8" y="278.707">Edit Event</text><line style="stroke:#181818;stroke-width:0.8000000000000002;" x1="228.2" x2="228.2" y1="268.1586" y2="278.6284"/><line style="stroke:#181818;stroke-width:0.8000000000000002;" x1="228.2" x2="272.4" y1="278.6284" y2="278.6284"/><line style="stroke:#181818;stroke-width:0.8000000000000002;" x1="272.4" x2="272.4" y1="278.6284" y2="299.568"/><polygon fill="#181818" points="269.2,291.568,272.4,299.568,275.6,291.568,272.4,294.768" style="stroke:#181818;stroke-width:0.8000000000000002;"/><text fill="#000000" font-family="sans-serif" font-size="8.8" lengthAdjust="spacing" textLength="48" x="228.2" y="283.507">Delete Event</text><line style="stroke:#181818;stroke-width:0.8000000000000002;" x1="58.8" x2="58.8" y1="341.1055" y2="382.7055"/><line style="stroke:#181818;stroke-width:0.8000000000000002;" x1="58.8" x2="218.6" y1="382.7055" y2="382.7055"/><polygon fill="#181818" points="210.6,379.5055,218.6,382.7055,210.6,385.9055,213.8,382.7055" style="stroke:#181818;stroke-width:0.8000000000000002;"/><line style="stroke:#181818;stroke-width:0.8000000000000002;" x1="383.6" x2="383.6" y1="328.3367" y2="382.7055"/><line style="stroke:#181818;stroke-width:0.8000000000000002;" x1="383.6" x2="237.8" y1="382.7055" y2="382.7055"/><polygon fill="#181818" points="245.8,379.5055,237.8,382.7055,245.8,385.9055,242.6,382.7055" style="stroke:#181818;stroke-width:0.8000000000000002;"/><line style="stroke:#181818;stroke-width:0.8000000000000002;" x1="164.8" x2="164.8" y1="341.1055" y2="382.7055"/><polygon fill="#181818" points="161.6,374.7055,164.8,382.7055,168,374.7055,164.8,377.9055" style="stroke:#181818;stroke-width:0.8000000000000002;"/><line style="stroke:#181818;stroke-width:0.8000000000000002;" x1="272.4" x2="272.4" y1="341.1055" y2="348.9188"/><line style="stroke:#181818;stroke-width:0.8000000000000002;" x1="272.4" x2="228.2" y1="348.9188" y2="348.9188"/><line style="stroke:#181818;stroke-width:0.8000000000000002;" x1="228.2" x2="228.2" y1="348.9188" y2="373.1055"/><polygon fill="#181818" points="225,365.1055,228.2,373.1055,231.4,365.1055,228.2,368.3055" style="stroke:#181818;stroke-width:0.8000000000000002;"/><line style="stroke:#181818;stroke-width:0.8000000000000002;" x1="228.2" x2="228.2" y1="427.5055" y2="506.4102"/><line style="stroke:#181818;stroke-width:0.8000000000000002;" x1="265.8" x2="285" y1="417.9055" y2="417.9055"/><polygon fill="#181818" points="277,414.7055,285,417.9055,277,421.1055,280.2,417.9055" style="stroke:#181818;stroke-width:0.8000000000000002;"/><line style="stroke:#181818;stroke-width:0.8000000000000002;" x1="228.2" x2="228.2" y1="392.3055" y2="408.3055"/><polygon fill="#181818" points="225,400.3055,228.2,408.3055,231.4,400.3055,228.2,403.5055" style="stroke:#181818;stroke-width:0.8000000000000002;"/><line style="stroke:#181818;stroke-width:0.8000000000000002;" x1="228.2" x2="228.2" y1="232.9586" y2="248.9586"/><polygon fill="#181818" points="225,240.9586,228.2,248.9586,231.4,240.9586,228.2,244.1586" style="stroke:#181818;stroke-width:0.8000000000000002;"/><line style="stroke:#181818;stroke-width:0.8000000000000002;" x1="228.2" x2="452.8" y1="506.4102" y2="506.4102"/><polygon fill="#181818" points="449.6,357.1055,452.8,349.1055,456,357.1055,452.8,353.9055" style="stroke:#181818;stroke-width:0.8000000000000002;"/><line style="stroke:#181818;stroke-width:0.8000000000000002;" x1="452.8" x2="452.8" y1="218.5742" y2="506.4102"/><line style="stroke:#181818;stroke-width:0.8000000000000002;" x1="452.8" x2="263" y1="218.5742" y2="218.5742"/><polygon fill="#181818" points="271,215.3742,263,218.5742,271,221.7742,267.8,218.5742" style="stroke:#181818;stroke-width:0.8000000000000002;"/><line style="stroke:#181818;stroke-width:0.8000000000000002;" x1="228.2" x2="228.2" y1="188.1898" y2="204.1898"/><polygon fill="#181818" points="225,196.1898,228.2,204.1898,231.4,196.1898,228.2,199.3898" style="stroke:#181818;stroke-width:0.8000000000000002;"/><!--SRC=[RP0nRm8n38Nt_0fllHieEpTK21XBfmwLRZ69uIBbd5DiGFpxvd8fKgjcSkJtsS_lPL2TPBDUJm5PhsDujN5SerL_y_fOEO-NXEFgH8h6Y69Ii_cOY0Ls68WTfixuCpIVGWa65DXQ6w-iRoteG0pDWwGrXe8GD1nR0_bjYdgN29K4cEu_L6VoI7ysYQRSgxeGBmAUEoDthtQek-mGesHwjXgvDHQ5cgrpSBWHQzrppAFB7xpqZCwH0usmHyLJrdSBTN1UVs4LuQUmPoymncpDawlKdW8f_SS9B3tNypd5yU-wsUGsO1ehLUgPUlehSqeMoyabuVUOAESqNolFTBzAkZNUOurND4xc6m00]--></g></svg>